<?xml version="1.0" encoding="UTF-8" standalone="no"?>
<svg width="487px" height="479px" viewBox="0 0 487 479" version="1.1" xmlns="http://www.w3.org/2000/svg" xmlns:xlink="http://www.w3.org/1999/xlink">
    <!-- Generator: Sketch 3.8.3 (29802) - http://www.bohemiancoding.com/sketch -->
    <title>pattern_dobus</title>
    <desc>Created with Sketch.</desc>
    <defs></defs>
    <g id="Page-1" stroke="none" stroke-width="1" fill="none" fill-rule="evenodd" fill-opacity="0.05">
        <g id="pattern_dobus" fill="#000000">
            <g id="Group-48">
                <path d="M268.4083,127.2224 C268.8833,126.0204 268.9303,124.9794 268.4373,124.2214 C268.3493,124.0864 268.2413,123.9684 268.1243,123.8574 C268.4673,126.7304 264.2793,131.7684 257.9383,135.8384 C251.2193,140.1504 244.4963,141.8264 242.3543,139.8344 C242.3973,140.1744 242.4823,140.4934 242.6593,140.7654 C243.0563,141.3764 243.7683,141.7434 244.7053,141.9004 L245.3963,143.3164 C245.4053,143.2924 245.4113,143.2714 245.4213,143.2474 C245.4743,143.4494 245.5523,143.6394 245.6643,143.8114 C247.1883,146.1544 253.6723,144.6854 260.1463,140.5294 C266.6213,136.3744 270.6343,131.1064 269.1103,128.7634 C269.0773,128.7134 269.0393,128.6674 269.0023,128.6204 C269.0363,128.6254 269.0663,128.6344 269.1003,128.6404 L268.4083,127.2224 L268.4083,127.2224 Z" id="Fill-2"></path>
                <path d="M274.7464,137.1534 C274.6594,137.0194 274.5504,136.9014 274.4334,136.7894 C274.7774,139.6634 270.5884,144.7014 264.2484,148.7704 C257.5284,153.0834 250.8054,154.7594 248.6634,152.7674 C248.7074,153.1064 248.7924,153.4254 248.9694,153.6984 L249.7604,155.3204 C250.8134,156.9394 254.1174,157.1344 258.2474,156.0144 C259.3504,156.3474 260.7464,156.5064 262.2524,156.3724 C262.9504,157.0644 265.2294,157.7204 267.1534,156.7814 C269.0774,155.8424 269.9634,153.6434 269.8474,152.6664 C271.2794,151.1344 272.1404,149.4204 272.3664,148.1164 C275.7054,144.9734 277.3064,141.8294 276.1904,140.1134 C276.1904,140.1134 274.7824,137.2084 274.7464,137.1534" id="Fill-4"></path>
                <path d="M247.9667,148.5837 L248.4457,149.5647 C248.4547,149.5417 248.4597,149.5197 248.4697,149.4967 C248.5227,149.6987 248.6017,149.8877 248.7137,150.0597 C250.2377,152.4027 256.7207,150.9337 263.1957,146.7787 C269.6697,142.6227 273.6827,137.3547 272.1587,135.0117 C272.1257,134.9617 272.0877,134.9157 272.0507,134.8687 C272.0857,134.8737 272.1147,134.8837 272.1487,134.8887 L271.6687,133.9057 C272.1447,132.7037 272.1907,131.6627 271.6977,130.9047 C271.6107,130.7707 271.5017,130.6527 271.3847,130.5407 C271.7287,133.4147 267.5397,138.4527 261.1997,142.5217 C254.4797,146.8347 247.7567,148.5107 245.6147,146.5187 C245.6587,146.8577 245.7437,147.1767 245.9207,147.4497 C246.3177,148.0597 247.0297,148.4277 247.9667,148.5837" id="Fill-6"></path>
                <path d="M261.3378,112.7527 L261.1148,113.4677 C261.1148,113.4677 258.3898,117.2507 253.6498,119.9657 C251.2778,112.0237 240.9158,77.2967 238.7638,69.6857 C236.6028,62.0427 233.6168,57.3237 229.8888,55.6607 C227.2238,54.4707 225.1918,55.3317 224.8018,55.5227 C224.8008,55.5237 224.7988,55.5237 224.7978,55.5247 C222.4458,56.6777 221.2018,58.9007 221.1788,61.9737 C217.8828,63.6167 216.8198,66.0507 216.5648,68.0277 C215.0918,68.9587 214.1778,70.1777 213.8438,71.6607 C213.0038,75.3887 216.1568,79.3927 216.2768,79.5427 L247.5768,122.9797 C242.1188,125.3047 237.1458,125.2127 237.1458,125.2127 L236.5018,124.9377 C236.3798,124.8857 224.2358,119.6207 220.1168,111.1777 L187.2308,43.7717 C191.2498,43.5237 199.6818,40.6147 208.9758,36.0807 C218.2688,31.5467 225.7508,26.6907 228.4198,23.6767 L261.3058,91.0817 C265.4058,99.4837 261.3788,112.6207 261.3378,112.7527 M222.1708,62.6097 C224.7568,61.6977 226.7948,63.8627 227.8108,65.2937 C230.2848,68.7837 231.3848,74.4647 229.8748,75.9587 C229.8008,76.0307 229.6058,76.2247 229.0788,76.0177 C226.6578,75.0637 222.4428,68.2397 222.1708,62.6097 M217.4818,68.7837 C217.4838,68.7287 217.4868,68.6727 217.4908,68.6167 C217.6198,68.5447 217.7538,68.4757 217.8928,68.4077 C219.4808,67.6327 220.8008,69.7797 221.1678,70.4557 C222.3898,72.7077 222.5818,75.4147 221.5628,76.0267 C221.3058,76.1757 220.9258,76.0297 220.6598,75.8717 C219.2758,75.0507 217.3478,72.0537 217.4818,68.7837 M220.1598,76.7137 C220.8598,77.1297 221.5348,77.1807 222.0658,76.8657 C223.4118,76.0587 223.7178,73.1027 222.0278,69.9887 C220.8418,67.8017 219.1888,66.8437 217.6688,67.4377 C218.0298,65.9537 218.9838,64.2977 221.2188,63.0577 C221.6718,68.7317 225.8518,75.7977 228.7198,76.9277 C229.4428,77.2127 230.0968,77.1157 230.5628,76.6537 C232.6218,74.6187 231.2088,68.3947 228.6088,64.7277 C226.7238,62.0687 224.4188,60.9617 222.1668,61.5857 C222.2778,59.0867 223.3058,57.3457 225.2288,56.4037 C225.2288,56.4037 225.2298,56.4027 225.2308,56.4027 C225.4318,56.3037 227.1738,55.5207 229.4898,56.5537 C231.8618,57.6127 235.2328,60.7967 237.8218,69.9527 C240.0398,77.7957 250.8008,114.0597 252.7108,120.4927 C251.9578,120.9037 251.1548,121.3197 250.2998,121.7367 C249.6788,122.0397 249.0808,122.3157 248.4938,122.5777 L217.0568,78.9507 C217.0268,78.9137 214.0608,75.1397 214.7988,71.8737 C215.0278,70.8627 215.5968,69.9927 216.4988,69.2737 C216.5658,72.4857 218.3808,75.6577 220.1598,76.7137 M225.5078,13.4187 C223.8298,10.4887 220.8638,6.4357 213.8588,6.5867 C206.9778,6.7347 198.8978,9.3537 194.1098,1.8677 C192.3388,-0.9013 190.2248,0.9397 191.1598,3.3067 C194.4708,11.6937 187.0748,16.4447 182.7238,21.7767 C178.2928,27.2057 179.6628,32.0377 180.9378,35.1637 C181.7768,37.2177 184.8298,43.1417 184.8298,43.1417 C189.5928,52.9037 209.7558,94.2297 218.4268,112.0027 C222.9128,121.1977 235.7638,126.6677 235.7638,126.6677 C235.7648,126.6687 235.7658,126.6697 235.7658,126.6707 L239.5268,134.3447 C239.9238,134.9557 240.6358,135.3237 241.5738,135.4797 L242.1358,136.6317 C242.1448,136.6087 242.1508,136.5877 242.1598,136.5637 C242.2138,136.7657 242.2918,136.9557 242.4038,137.1277 C243.9278,139.4707 250.4118,138.0017 256.8858,133.8457 C263.3598,129.6907 267.3728,124.4227 265.8488,122.0797 C265.8168,122.0287 265.7788,121.9827 265.7418,121.9367 C265.7758,121.9417 265.8058,121.9507 265.8388,121.9567 L265.2738,120.7967 C265.7178,119.6677 265.7868,118.6797 265.3808,117.9377 C265.3718,117.9157 265.3668,117.8917 265.3558,117.8707 L263.1328,113.3147 C263.1348,113.3097 267.4828,99.4517 262.9968,90.2577 C254.4078,72.6517 234.1728,31.1787 229.4008,21.3967 C229.4008,21.3967 226.6118,15.3437 225.5078,13.4187" id="Fill-8"></path>
                <path d="M268.0555,312.037 C265.8095,312.405 263.4875,312.298 261.1885,311.679 C259.5085,311.228 257.8425,310.527 256.2345,309.515 C246.8145,303.582 242.7235,289.853 247.0195,278.719 C247.3785,277.789 248.3015,277.418 249.0825,277.891 C249.8645,278.366 250.2065,279.506 249.8455,280.438 C246.2375,289.748 249.6665,301.233 257.5575,306.175 C259.0615,307.117 260.6255,307.756 262.1985,308.113 C264.5675,308.649 266.9515,308.521 269.1915,307.827 C273.3745,306.53 277.0405,303.211 279.0655,298.206 C279.4485,297.259 280.4275,296.896 281.2525,297.396 C282.0785,297.897 282.4365,299.073 282.0515,300.022 C279.2715,306.863 273.9435,311.071 268.0555,312.037 L268.0555,312.037 Z M287.5325,352.394 L326.7615,259.116 L303.8125,246.483 L290.6575,278.859 C292.7675,281.045 293.5115,284.641 292.2775,287.662 C290.8005,291.275 287.0615,292.669 283.9355,290.796 C280.8275,288.933 279.4855,284.528 280.9295,280.938 C282.1355,277.938 284.9115,276.437 287.6195,277.079 L300.6925,244.766 L283.1145,235.09 L270.2625,228.015 L257.9805,259.711 C259.9795,261.806 260.6945,265.297 259.5385,268.262 C258.1565,271.809 254.6305,273.232 251.6735,271.459 C248.7305,269.696 247.4495,265.424 248.8015,261.9 C249.9305,258.956 252.5465,257.446 255.1065,258.027 L267.3135,226.392 L246.6165,214.999 L213.5615,303.567 L227.3455,312.666 L233.0745,316.447 L253.9775,330.245 L259.5485,333.923 L277.0485,345.474 L282.8215,349.285 L287.5325,352.394 Z" id="Fill-10"></path>
                <path d="M325.5346,318.6483 L318.8306,320.1613 C317.3046,322.8783 315.1386,325.1173 313.5296,325.4973 C311.5776,325.9593 311.1766,323.5193 312.6556,320.0323 C314.1416,316.5333 316.9346,313.3593 318.8716,312.9593 C320.4696,312.6283 320.9736,314.2953 320.2466,316.8503 L327.2586,315.3233 L332.9766,314.0783 L342.5636,291.9723 L345.6576,284.8363 L347.3246,284.5993 L345.7316,288.2643 L333.2926,316.8973 L325.5346,318.6483 Z M336.7436,338.9133 L372.6046,257.9083 L345.7156,259.5393 L331.5816,260.3963 L314.9806,299.8693 L292.9716,352.2033 L315.1686,345.4643 L322.6276,343.1993 L336.7436,338.9133 Z" id="Fill-12"></path>
                <polygon id="Fill-14" points="330.4638 255.5161 348.6938 254.4111 367.6918 253.2581 349.5118 243.4731 309.7258 244.1011"></polygon>
                <polygon id="Fill-16" points="306.6455 242.4052 346.7105 241.9652 319.0245 227.0632 276.5645 225.8472"></polygon>
                <polygon id="Fill-18" points="316.3058 225.6 300.0958 216.875 255.9568 214.503 273.6458 224.24"></polygon>
                <path d="M363.8317,22.6411 C353.6097,22.6411 345.2927,30.9541 345.2927,41.1771 C345.2927,51.3991 353.6097,59.7201 363.8317,59.7201 C374.0577,59.7201 382.3747,51.3991 382.3747,41.1771 C382.3747,30.9541 374.0577,22.6411 363.8317,22.6411 M363.8317,63.2611 C351.6557,63.2611 341.7507,53.3571 341.7507,41.1771 C341.7507,29.0041 351.6557,19.1001 363.8317,19.1001 C376.0077,19.1001 385.9157,29.0041 385.9157,41.1771 C385.9157,53.3571 376.0077,63.2611 363.8317,63.2611" id="Fill-20"></path>
                <path d="M44.5479,77.7923 C52.3459,78.3593 59.2829,72.4183 59.8499,64.5473 C60.4139,56.6693 54.4699,49.8013 46.5949,49.2413 C42.7459,48.9093 39.0909,50.1963 36.2029,52.6993 C33.3119,55.2033 31.5689,58.6823 31.2959,62.4933 C31.0229,66.3043 32.2509,69.9973 34.7539,72.8883 C37.2549,75.7793 40.7339,77.5223 44.5479,77.7923 M45.5849,83.4983 C45.1079,83.4983 44.6279,83.4843 44.1399,83.4503 C38.8179,83.0623 33.9619,80.6353 30.4699,76.5953 C26.9769,72.5633 25.2619,67.4113 25.6459,62.0923 C26.0259,56.7663 28.4609,51.9113 32.4929,48.4113 C36.5279,44.9123 41.6639,43.1893 47.0029,43.5843 C57.9899,44.3723 66.2899,53.9583 65.5009,64.9483 C64.7469,75.4543 55.9569,83.4983 45.5849,83.4983" id="Fill-22"></path>
                <path d="M77.9954,46.3297 C80.2534,46.4817 82.2554,44.7737 82.4184,42.5047 C82.5814,40.2227 80.8624,38.2377 78.5864,38.0787 C77.4944,37.9197 76.4154,38.3477 75.5814,39.0747 C74.7444,39.8007 74.2434,40.8037 74.1634,41.9097 C74.0014,44.1857 75.7204,46.1707 77.9954,46.3297 M78.2994,52.0077 C78.0644,52.0077 77.8264,52.0007 77.5874,51.9877 C72.1964,51.5927 68.1254,46.8967 68.5134,41.5087 C68.6994,38.8947 69.8894,36.5087 71.8714,34.7937 C73.8524,33.0777 76.3594,32.2687 78.9944,32.4207 C81.6054,32.6147 83.9884,33.8037 85.7034,35.7887 C87.4154,37.7677 88.2554,40.2987 88.0694,42.9057 C87.6994,48.0657 83.3864,52.0077 78.2994,52.0077" id="Fill-24"></path>
                <path d="M26.8391,421.6064 C25.4761,422.2614 23.8431,421.6874 23.1891,420.3254 C21.1321,416.0434 19.3301,411.6994 17.8311,407.4054 C17.3321,405.9794 18.1141,404.4534 19.5111,403.9194 C20.9381,403.4234 22.4991,404.1734 22.9971,405.5994 C24.4281,409.7014 26.1521,413.8574 28.1201,417.9564 C28.7751,419.3194 28.2021,420.9514 26.8391,421.6064" id="Fill-26"></path>
                <path d="M31.0491,329.6467 C30.1361,330.0847 29.0121,329.9967 28.1671,329.3297 C26.9831,328.3937 26.7781,326.6717 27.7171,325.4857 C32.7161,319.1547 38.6171,314.0097 45.2511,310.1887 C46.8431,309.2697 48.4301,308.3777 50.0111,307.5167 C51.1891,306.7677 52.9971,307.2807 53.7211,308.6097 C54.4431,309.9337 53.9531,311.5977 52.6251,312.3187 C51.0871,313.1587 49.5391,314.0327 47.9861,314.9327 C41.9521,318.4057 36.5771,323.0967 32.0081,328.8777 C31.7421,329.2137 31.4131,329.4717 31.0491,329.6467 M105.2511,298.1017 C104.8201,298.3087 104.3311,298.4077 103.8231,298.3607 C95.3521,297.5877 86.7411,298.5817 77.4911,301.4007 C76.0451,301.8407 74.5171,301.0277 74.0761,299.5797 C73.6361,298.1377 74.4081,296.6227 75.8961,296.1687 C85.8331,293.1387 95.1311,292.0747 104.3161,292.9087 C105.8241,293.0497 106.9301,294.3787 106.7941,295.8847 C106.7021,296.8777 106.0921,297.6977 105.2511,298.1017 M15.9691,381.8167 C15.6611,381.9647 15.3201,382.0577 14.9591,382.0827 C13.4471,382.1747 12.1511,381.0317 12.0551,379.5247 C11.4331,369.6647 12.3831,360.1097 14.8791,351.1227 C15.2801,349.6617 16.7921,348.8117 18.2481,349.2207 C19.7041,349.6237 20.5541,351.1287 20.1511,352.5857 C17.8201,360.9837 16.9321,369.9327 17.5141,379.1787 C17.5871,380.3227 16.9421,381.3497 15.9691,381.8167 M154.4961,321.6817 C153.5521,322.1347 152.3921,322.0227 151.5411,321.3047 C143.9341,314.8707 136.4191,309.7377 129.2061,306.0427 C127.8621,305.3547 127.3261,303.7037 128.0141,302.3597 C128.7051,301.0137 130.3551,300.4887 131.6971,301.1717 C139.2841,305.0547 147.1491,310.4277 155.0771,317.1287 C156.2301,318.1047 156.3751,319.8307 155.3981,320.9817 C155.1421,321.2877 154.8301,321.5207 154.4961,321.6817 M192.2511,362.2307 C191.1321,362.7687 189.7521,362.4887 188.9391,361.4807 L186.6481,358.6157 C181.3811,351.9947 176.1731,345.8657 171.1651,340.3947 C170.1461,339.2837 170.2211,337.5527 171.3361,336.5307 C172.4521,335.5147 174.1811,335.5917 175.2001,336.7017 C180.2931,342.2637 185.5871,348.4927 190.9271,355.2097 L193.2001,358.0477 C194.1491,359.2277 193.9611,360.9477 192.7871,361.8967 C192.6181,362.0317 192.4371,362.1417 192.2511,362.2307 M229.2721,403.6437 C228.2531,404.1327 226.9941,403.9547 226.1501,403.1097 C219.7471,396.6897 213.3031,389.8517 206.9941,382.7817 C205.9871,381.6537 206.0861,379.9227 207.2131,378.9187 C208.3531,377.8917 210.0741,378.0127 211.0761,379.1377 C217.3171,386.1337 223.6931,392.8977 230.0251,399.2457 C231.0901,400.3157 231.0891,402.0477 230.0191,403.1127 C229.7951,403.3387 229.5411,403.5137 229.2721,403.6437 M271.0841,440.1817 C270.1961,440.6087 269.1071,440.5387 268.2641,439.9117 C261.0841,434.5707 253.7711,428.6297 246.5261,422.2647 C245.3901,421.2697 245.2811,419.5437 246.2761,418.4077 C247.2691,417.2667 249.0041,417.1567 250.1371,418.1597 C257.2711,424.4237 264.4671,430.2667 271.5311,435.5217 C272.7431,436.4217 272.9951,438.1377 272.0911,439.3477 C271.8181,439.7167 271.4691,439.9967 271.0841,440.1817 M484.9861,342.6447 C484.6781,342.7927 484.3391,342.8847 483.9781,342.9097 C482.4711,343.0047 481.1701,341.8637 481.0721,340.3577 C480.5021,331.5697 479.0971,322.5057 476.9041,313.4237 C476.5481,311.9587 477.4551,310.4917 478.9191,310.1207 C480.3871,309.7657 481.8681,310.6717 482.2201,312.1387 C484.4891,321.5277 485.9391,330.9017 486.5311,339.9997 C486.6061,341.1497 485.9611,342.1767 484.9861,342.6447 M318.9211,468.1297 C318.2441,468.4557 317.4361,468.4997 316.6911,468.1937 C308.5051,464.7997 300.0541,460.5317 291.5741,455.5067 C290.2741,454.7377 289.8441,453.0597 290.6151,451.7587 C291.3861,450.4517 293.0611,450.0327 294.3631,450.8007 C302.6201,455.6947 310.8371,459.8447 318.7831,463.1347 C320.1791,463.7147 320.8421,465.3167 320.2631,466.7097 C319.9971,467.3587 319.5091,467.8477 318.9211,468.1297 M477.2431,397.1827 C476.5931,397.4947 475.8201,397.5517 475.0881,397.2747 C473.6751,396.7387 472.9641,395.1597 473.5001,393.7467 C476.6651,385.4047 478.9031,376.5707 480.1541,367.4947 C480.3591,366.0027 481.7431,364.9597 483.2381,365.1597 C484.7351,365.3647 485.7811,366.7477 485.5761,368.2447 C484.2671,377.7227 481.9241,386.9567 478.6171,395.6867 C478.3571,396.3687 477.8551,396.8887 477.2431,397.1827 M446.5051,442.8207 C445.4601,443.3227 444.1681,443.1197 443.3311,442.2357 C442.2951,441.1327 442.3441,439.4027 443.4431,438.3647 C450.1361,432.0497 456.0571,425.1157 461.0371,417.7577 C461.8821,416.4977 463.5861,416.1777 464.8361,417.0227 C466.0851,417.8697 466.4141,419.5727 465.5671,420.8207 C460.3621,428.5127 454.1821,435.7547 447.1981,442.3457 C446.9871,442.5417 446.7531,442.7017 446.5051,442.8207 M372.9781,478.3387 C372.6701,478.4867 372.3291,478.5797 371.9681,478.6047 C362.8591,479.1807 353.3351,478.4917 343.6661,476.5567 C342.1841,476.2607 341.2251,474.8187 341.5211,473.3377 C341.8171,471.8557 343.2591,470.9027 344.7401,471.1927 C353.9451,473.0367 362.9861,473.6897 371.6191,473.1417 C373.1261,473.0457 374.4271,474.1927 374.5231,475.6997 C374.5951,476.8447 373.9531,477.8707 372.9781,478.3387 M407.0421,469.4567 C404.6271,470.6167 402.1921,471.6567 399.7471,472.5877 C398.3331,473.1247 396.7561,472.4187 396.2191,471.0047 C395.6841,469.5957 396.4521,468.0417 397.8021,467.4767 C400.1601,466.5807 402.4691,465.4837 404.8371,464.4467 C410.8281,461.5687 416.5781,458.3927 421.9301,454.9987 C423.1761,454.1507 424.8951,454.5697 425.7041,455.8407 C426.5131,457.1177 426.1351,458.8047 424.8581,459.6137 C419.2821,463.1577 413.3991,466.4517 407.0421,469.4567" id="Fill-28"></path>
                <path d="M472.0444,288.3927 C471.9914,288.4177 471.9404,288.4427 471.8854,288.4627 C470.4854,289.0287 468.8904,288.3547 468.3224,286.9557 C466.6624,282.8577 464.8214,278.7037 462.8524,274.6057 C462.1984,273.2427 462.7714,271.6097 464.1344,270.9557 C465.4974,270.3007 467.1294,270.8737 467.7844,272.2367 C469.8014,276.4367 471.6884,280.6987 473.3924,284.8997 C473.9374,286.2447 473.3354,287.7727 472.0444,288.3927" id="Fill-30"></path>
                <path d="M43.822,445.8098 L34.825,437.6948 L35.545,449.7918 L43.822,445.8098 Z M27.804,430.9298 L34.125,427.8938 L62.556,452.8718 L55.391,456.3108 L49.179,450.6908 L35.999,457.0218 L36.508,465.3708 L29.526,468.7358 L27.804,430.9298 Z" id="Fill-32"></path>
                <path d="M459.2416,254.9344 C462.2706,253.4764 463.5806,251.5384 462.4666,249.2184 L462.4216,249.1314 C461.4246,247.0374 459.2386,246.4974 455.7256,248.1804 L447.7996,251.9894 L451.0946,258.8484 L459.2416,254.9344 Z M451.3826,243.2544 C454.4116,241.7974 455.8606,239.9024 454.7456,237.5824 L454.7006,237.4954 C453.7186,235.4484 451.5626,235.0634 448.6686,236.4614 L441.9046,239.7074 L445.0616,246.2904 L451.3826,243.2544 Z M432.3396,236.9004 L446.8056,229.9574 C450.3646,228.2454 453.6406,227.8724 456.2786,228.7994 C458.3816,229.5374 459.9316,230.9294 460.9566,233.0694 L461.0006,233.1624 C462.6896,236.6774 461.7596,239.5324 460.1356,241.8494 C464.4056,241.4984 467.6356,242.5244 469.6436,246.7114 L469.6896,246.7984 C472.4276,252.4974 469.1596,257.5614 462.1296,260.9414 L447.3036,268.0614 L432.3396,236.9004 Z" id="Fill-34"></path>
                <path d="M459.452,117.13 L459.452,138.278 L438.303,138.278 L438.303,117.13 L417.155,117.13 L417.155,95.981 L438.303,95.981 L438.303,74.832 L459.452,74.832 L459.452,95.981 L480.601,95.981 L480.601,117.13 L459.452,117.13 Z" id="Combined-Shape"></path>
                <path d="M357.8488,137.6152 L327.0268,159.0242 L342.1128,159.4542 C343.1838,159.4852 344.1518,160.1032 344.6268,161.0612 L351.3478,174.5752 L357.8488,137.6152 Z M315.3028,162.2922 C315.0528,161.1532 315.5108,159.9642 316.4808,159.2902 L360.2548,128.8842 C361.2138,128.2162 362.4858,128.1912 363.4708,128.8232 C364.4588,129.4532 364.9658,130.6172 364.7648,131.7672 L355.5318,184.2602 C355.3148,185.4942 354.3298,186.4482 353.0908,186.6282 C351.8518,186.8062 350.6378,186.1702 350.0788,185.0492 L340.2098,165.2012 L318.0498,164.5702 C316.7998,164.5332 315.7138,163.6982 315.3558,162.4992 C315.3378,162.4302 315.3178,162.3622 315.3028,162.2922 L315.3028,162.2922 Z" id="Fill-39"></path>
                <path d="M378.2005,378.191 C366.9715,378.191 357.8385,387.328 357.8385,398.553 C357.8385,409.778 366.9715,418.915 378.2005,418.915 C389.4295,418.915 398.5625,409.778 398.5625,398.553 C398.5625,387.328 389.4295,378.191 378.2005,378.191 M378.2005,425.997 C363.0675,425.997 350.7565,413.686 350.7565,398.553 C350.7565,383.42 363.0675,371.109 378.2005,371.109 C393.3335,371.109 405.6445,383.42 405.6445,398.553 C405.6445,413.686 393.3335,425.997 378.2005,425.997" id="Fill-40"></path>
                <path d="M127.2123,125.204 L126.6483,124.167 C125.8463,122.686 124.9373,121.234 123.9473,119.851 L126.8323,117.79 C127.6753,118.972 128.4643,120.203 129.1873,121.448 C130.2483,121.359 131.3173,121.289 132.3923,121.248 L133.4683,121.213 L133.5373,124.754 L132.5653,124.789 C131.1373,124.844 129.7573,124.941 128.3883,125.086 L127.2123,125.204 Z" id="Fill-41"></path>
                <path d="M98.3745,103.6318 C95.4935,103.1128 92.5125,102.9058 89.4935,103.0158 C89.0275,103.0368 88.5495,103.0578 88.0795,103.0988 L87.7825,99.5718 C88.3075,99.5308 88.8335,99.4958 89.3595,99.4748 C92.6855,99.3578 95.8815,99.5788 99.0035,100.1458 L98.3745,103.6318 Z M68.7245,109.7738 L66.7455,106.8408 C69.8585,104.7458 73.2405,103.0648 76.8025,101.8338 L77.9575,105.1808 C74.6855,106.3088 71.5775,107.8578 68.7245,109.7738 L68.7245,109.7738 Z M116.9135,112.2978 C114.2475,110.0778 111.3185,108.2178 108.2025,106.7578 L109.7035,103.5488 C113.0925,105.1398 116.2805,107.1658 119.1755,109.5728 L116.9135,112.2978 Z M55.1405,125.1068 L51.9865,123.5028 C53.6875,120.1548 55.8115,117.0358 58.2945,114.2208 L60.9505,116.5728 C58.6605,119.1588 56.7065,122.0298 55.1405,125.1068 L55.1405,125.1068 Z" id="Fill-42"></path>
                <path d="M44.4234,142.6332 L43.5314,139.2022 C44.8524,138.8642 46.1904,138.5662 47.5464,138.3172 C47.7054,136.9412 47.9264,135.5642 48.2134,134.2092 L51.6784,134.9422 C51.3264,136.6022 51.0804,138.2962 50.9424,139.9772 L50.8314,141.3602 L49.4584,141.5822 C47.7504,141.8512 46.0694,142.2042 44.4234,142.6332" id="Fill-43"></path>
                <path d="M25.4034,151.8597 L23.2664,149.0377 C26.2854,146.7487 29.5254,144.7567 32.9044,143.1177 L34.4534,146.2987 C31.2824,147.8417 28.2394,149.7087 25.4034,151.8597 L25.4034,151.8597 Z M11.4114,167.7117 L8.3474,165.9277 C10.2464,162.6697 12.4764,159.5787 14.9734,156.7497 L17.6294,159.1007 C15.2814,161.7497 13.1894,164.6477 11.4114,167.7117 L11.4114,167.7117 Z M4.6024,187.7007 L1.0894,187.2437 C1.5804,183.4887 2.4444,179.7807 3.6584,176.2187 L7.0124,177.3677 C5.8714,180.7007 5.0624,184.1797 4.6024,187.7007 L4.6024,187.7007 Z M2.6034,209.7087 C1.6214,206.0767 0.9954,202.3217 0.7434,198.5447 L4.2774,198.3097 C4.5124,201.8577 5.1004,205.3787 6.0204,208.7817 L2.6034,209.7087 Z M12.6674,229.8557 C10.3464,226.8817 8.3164,223.6587 6.6324,220.2837 L9.8004,218.7067 C11.3804,221.8677 13.2824,224.8897 15.4614,227.6837 L12.6674,229.8557 Z M29.7054,244.5947 C26.4344,242.7477 23.3214,240.5487 20.4584,238.0727 L22.7754,235.3887 C25.4624,237.7197 28.3804,239.7807 31.4484,241.5097 L29.7054,244.5947 Z M51.0974,251.6217 C47.3454,251.1717 43.6284,250.3487 40.0484,249.1727 L41.1554,245.8117 C44.5134,246.9117 47.9994,247.6857 51.5194,248.1077 L51.0974,251.6217 Z M62.4094,251.8427 L62.1394,248.3157 C65.6844,248.0457 69.2014,247.4167 72.5934,246.4617 L73.5554,249.8647 C69.9384,250.8887 66.1894,251.5587 62.4094,251.8427 L62.4094,251.8427 Z" id="Fill-44"></path>
                <path d="M90.9602,246.2474 C89.9052,245.3964 88.8782,244.5114 87.8722,243.5984 C86.7102,244.3104 85.5202,244.9814 84.3032,245.6114 L82.6782,242.4714 C84.2032,241.6824 85.6832,240.8184 87.1142,239.8844 L88.2832,239.1304 L89.2972,240.0854 C90.5482,241.2744 91.8452,242.4084 93.1872,243.4944 L90.9602,246.2474 Z" id="Fill-45"></path>
                <path d="M154.0167,127.4034 C150.7517,126.4494 147.3697,125.7434 143.9607,125.2944 L144.4237,121.7804 C148.0097,122.2504 151.5687,122.9974 155.0057,124.0004 L154.0167,127.4034 Z M172.5417,136.1044 C169.7097,134.2024 166.7047,132.4934 163.6097,131.0274 L165.1247,127.8324 C168.3787,129.3674 171.5397,131.1654 174.5207,133.1714 L172.5417,136.1044 Z M187.5857,150.0064 C185.4727,147.3434 183.1207,144.8114 180.5967,142.4814 L183.0027,139.8804 C185.6557,142.3354 188.1317,145.0054 190.3587,147.8064 L187.5857,150.0064 Z M197.7277,167.8014 C196.5177,164.6064 195.0447,161.4874 193.3497,158.5134 L196.4277,156.7564 C198.2127,159.8894 199.7617,163.1814 201.0407,166.5434 L197.7277,167.8014 Z M201.9717,187.8314 C201.7807,184.3944 201.3277,180.9704 200.6227,177.6504 L204.0877,176.9174 C204.8277,180.4104 205.3047,184.0204 205.5057,187.6384 L201.9717,187.8314 Z M203.4137,209.1064 L199.9827,208.2214 C200.8337,204.9154 201.4317,201.5124 201.7567,198.1094 L205.2847,198.4554 C204.9387,202.0314 204.3087,205.6134 203.4137,209.1064 L203.4137,209.1064 Z M194.8997,228.9084 L191.8977,227.0264 C193.7097,224.1424 195.3147,221.0784 196.6737,217.9384 L199.9237,219.3354 C198.4957,222.6484 196.8047,225.8714 194.8997,228.9084 L194.8997,228.9084 Z M180.7937,245.2104 L178.4967,242.5124 C181.0977,240.2994 183.5527,237.8714 185.7907,235.2854 L188.4667,237.6084 C186.1117,240.3274 183.5287,242.8864 180.7937,245.2104 L180.7937,245.2104 Z M162.4067,256.5044 L161.0367,253.2394 C164.1977,251.9184 167.2717,250.3354 170.1807,248.5504 L172.0337,251.5664 C168.9737,253.4474 165.7327,255.1144 162.4067,256.5044 L162.4067,256.5044 Z M109.5967,257.1064 C106.2347,255.7924 102.9597,254.2014 99.8577,252.3964 L101.6427,249.3394 C104.5857,251.0544 107.6977,252.5624 110.8897,253.8134 L109.5967,257.1064 Z M141.4637,261.6644 L141.1527,258.1364 C144.5657,257.8394 147.9757,257.2724 151.2847,256.4564 L152.1287,259.9004 C148.6457,260.7584 145.0567,261.3524 141.4637,261.6644 L141.4637,261.6644 Z M130.6497,261.7814 C127.0397,261.5534 123.4397,261.0414 119.9427,260.2664 L120.7107,256.8084 C124.0277,257.5484 127.4477,258.0324 130.8777,258.2544 L130.6497,261.7814 Z" id="Fill-46"></path>
                <path d="M121.1709,408.0558 C116.0939,408.0558 111.9649,403.9268 111.9649,398.8498 C111.9649,393.7748 116.0939,389.6448 121.1709,389.6448 C126.2479,389.6448 130.3769,393.7748 130.3769,398.8498 C130.3769,403.9268 126.2479,408.0558 121.1709,408.0558 M121.1709,363.4388 C101.6439,363.4388 85.7589,379.3248 85.7589,398.8498 C85.7589,418.3788 101.6439,434.2618 121.1709,434.2618 C128.3899,434.2618 135.3119,432.1318 141.1889,428.0958 L137.1809,422.2588 C132.4879,425.4778 126.9529,427.1798 121.1709,427.1798 C105.5499,427.1798 92.8419,414.4708 92.8419,398.8498 C92.8419,383.2298 105.5499,370.5208 121.1709,370.5208 C136.7909,370.5208 149.4999,383.2298 149.4999,398.8498 L149.4999,401.6218 C149.4999,406.5378 147.3819,409.4738 143.8359,409.4738 L143.8289,409.5358 C143.6129,409.4958 143.3879,409.4738 143.1599,409.4738 L142.4179,409.4738 C140.4239,409.4738 137.4589,406.5758 137.4589,404.6258 L137.4589,398.8498 C137.4589,389.8708 130.1519,382.5618 121.1709,382.5618 C112.1899,382.5618 104.8829,389.8708 104.8829,398.8498 C104.8829,407.8308 112.1899,415.1378 121.1709,415.1378 C125.5399,415.1378 129.4929,413.3898 132.4209,410.5768 C134.7199,413.9688 138.6259,416.5558 142.4179,416.5558 L142.4249,416.4918 C142.6459,416.5338 142.8759,416.5558 143.1109,416.5558 L143.8359,416.5558 C151.4589,416.5558 156.5829,410.5558 156.5829,401.6218 L156.5829,398.8498 C156.5829,379.3248 140.6979,363.4388 121.1709,363.4388" id="Fill-47"></path>
            </g>
        </g>
    </g>
</svg>