<?xml version="1.0" encoding="UTF-8" standalone="no"?>
<svg width="513px" height="521px" viewBox="0 0 513 521" version="1.1" xmlns="http://www.w3.org/2000/svg" xmlns:xlink="http://www.w3.org/1999/xlink">
    <!-- Generator: Sketch 39.1 (31720) - http://www.bohemiancoding.com/sketch -->
    <title>Group</title>
    <desc>Created with Sketch.</desc>
    <defs></defs>
    <g id="Page-1" stroke="none" stroke-width="1" fill="none" fill-rule="evenodd" opacity="0.448810634">
        <g id="Group" transform="translate(-27.000000, -21.000000)">
            <g transform="translate(25.000000, 21.000000)" id="Shape">
                <g transform="translate(187.000000, 194.000000)">
                    <g>
                        <ellipse fill="#FDC400" transform="translate(19.708600, 22.599700) rotate(-30.000728) translate(-19.708600, -22.599700) " cx="19.708842" cy="22.6001202" rx="11" ry="19.1"></ellipse>
                        <path d="M25.7,41.1 C23.7,41.1 21.4,40.4 19.1,39.1 C15.3,36.9 11.8,33.2 9.2,28.6 C6.6,24 5.1,19.1 5.1,14.8 C5.1,10.2 6.7,6.8 9.6,5.1 C12.5,3.4 16.3,3.8 20.2,6 C24,8.2 27.5,11.9 30.1,16.5 C32.7,21.1 34.2,26 34.2,30.3 C34.2,34.9 32.6,38.3 29.7,40 L29.7,40 C28.6,40.7 27.2,41.1 25.7,41.1 L25.7,41.1 Z M13.7,6.3 C12.6,6.3 11.6,6.6 10.7,7.1 C8.5,8.4 7.3,11.1 7.3,14.9 C7.3,18.9 8.6,23.4 11.1,27.6 C13.6,31.8 16.8,35.3 20.2,37.3 C23.4,39.2 26.4,39.5 28.6,38.2 L28.6,38.2 C30.8,36.9 32,34.2 32,30.4 C32,26.4 30.7,21.9 28.2,17.7 C25.7,13.5 22.5,10 19.1,8 C17.2,6.8 15.4,6.3 13.7,6.3 L13.7,6.3 Z" fill="#CCA000"></path>
                    </g>
                    <g transform="translate(9.000000, 0.000000)">
                        <path d="M7.7,2.3 C13,-0.7 21.5,4.2 26.8,13.3 C32.1,22.4 32.1,32.3 26.8,35.3 L20.3,39 C25.6,36 25.6,26.1 20.3,17 C15,7.9 6.5,3 1.2,6 L7.7,2.3 L7.7,2.3 Z" fill="#E0AF00"></path>
                        <path d="M20.2,40.2 C19.8,40.2 19.5,40 19.2,39.7 C18.9,39.2 19.1,38.5 19.6,38.2 L19.6,38.2 C21.8,36.9 23,34.2 23,30.4 C23,26.4 21.7,21.9 19.2,17.7 C16.7,13.5 13.5,10 10.1,8 C6.9,6.1 3.9,5.8 1.7,7.1 L1.7,7.1 C1.2,7.4 0.5,7.2 0.2,6.7 C-0.1,6.2 0.1,5.5 0.6,5.2 L7.1,1.5 C10,-0.2 13.8,0.2 17.7,2.4 C21.5,4.6 25,8.3 27.6,12.9 C30.2,17.5 31.7,22.4 31.7,26.7 C31.7,31.3 30.1,34.7 27.2,36.4 L20.7,40.1 L20.7,40.1 C20.6,40.1 20.4,40.2 20.2,40.2 L20.2,40.2 Z M6.5,4.2 C8,4.5 9.6,5.1 11.2,6 C15,8.2 18.5,11.9 21.1,16.5 C23.7,21.1 25.2,26 25.2,30.3 C25.2,32.2 24.9,33.8 24.4,35.3 L26.1,34.3 C28.3,33 29.5,30.3 29.5,26.5 C29.5,22.5 28.2,18 25.7,13.8 C23.2,9.6 20,6.1 16.6,4.1 C13.4,2.2 10.4,1.9 8.2,3.2 L8.2,3.2 L6.5,4.2 L6.5,4.2 Z" fill="#CCA000"></path>
                    </g>
                    <path d="M26.1,32.4 C25.9,32.4 25.8,32.4 25.7,32.3 L12.8,24.9 C12.6,24.8 12.4,24.6 12.4,24.3 C12.3,24.1 12.4,23.8 12.5,23.6 L18.9,14.4 C19.1,14.1 19.4,14 19.7,14 C20,14 20.3,14.3 20.4,14.6 L26.8,31.2 C26.9,31.5 26.8,31.9 26.6,32.2 C26.6,32.3 26.4,32.4 26.1,32.4 L26.1,32.4 Z M14.6,23.8 L24.5,29.5 L19.6,16.8 L14.6,23.8 L14.6,23.8 Z" fill="#CCA000"></path>
                    <path d="M22.2,16.4 C22.2,18 21.1,18.6 19.7,17.8 C18.3,17 17.2,15.1 17.2,13.5 C17.2,11.9 18.3,11.3 19.7,12.1 C21.1,12.8 22.2,14.8 22.2,16.4 L22.2,16.4 Z" fill="#CCA000"></path>
                    <path d="M28.7,32.9 C28.7,34.5 27.6,35.1 26.2,34.3 C24.8,33.5 23.7,31.6 23.7,30 C23.7,28.4 24.8,27.8 26.2,28.6 C27.5,29.4 28.7,31.3 28.7,32.9 L28.7,32.9 Z" fill="#CCA000"></path>
                    <path d="M15.8,25.5 C15.8,27.1 14.7,27.7 13.3,26.9 C11.9,26.1 10.8,24.2 10.8,22.6 C10.8,21 11.9,20.4 13.3,21.2 C14.7,22 15.8,23.9 15.8,25.5 L15.8,25.5 Z" fill="#CCA000"></path>
                </g>
                <g transform="translate(2.000000, 4.000000)">
                    <g transform="translate(0.000000, 4.000000)">
                        <path d="M24.9,15.6 C23.4,14.7 21.9,14.4 20.7,14.6 C19.2,9.8 15.7,5 11.8,2.7 C6.4,-0.4 2,2.1 2,8.4 C2,14.7 6.4,22.3 11.8,25.4 C14.6,27 22.4,31.5 24.9,33 C29.1,35.4 32.4,33.5 32.4,28.6 C32.4,23.7 29,18 24.9,15.6 L24.9,15.6 Z" fill="#FDC400"></path>
                        <path d="M28.2,35.1 C27,35.1 25.6,34.7 24.3,33.9 L11.2,26.3 C5.5,23.1 0.9,15 0.9,8.4 C0.9,5 2.1,2.4 4.3,1.1 C6.5,-0.2 9.4,0.1 12.3,1.8 C16.2,4 19.7,8.5 21.5,13.4 L21.5,13.4 C22.7,13.4 24.1,13.8 25.4,14.6 C29.9,17.2 33.5,23.4 33.5,28.6 C33.5,31.3 32.5,33.4 30.7,34.4 C30,34.9 29.1,35.1 28.2,35.1 L28.2,35.1 Z M7.4,2.5 C6.7,2.5 6,2.7 5.4,3 C3.9,3.9 3.1,5.8 3.1,8.4 C3.1,14.3 7.3,21.5 12.4,24.4 L25.4,32 C27.1,33 28.6,33.1 29.6,32.5 C30.7,31.9 31.3,30.5 31.3,28.6 C31.3,24.2 28.2,18.7 24.3,16.5 L24.3,16.5 C23,15.8 21.9,15.5 20.9,15.7 C20.4,15.8 19.8,15.5 19.6,15 C18.1,10.3 14.8,5.9 11.2,3.8 C9.8,2.9 8.5,2.5 7.4,2.5 L7.4,2.5 Z" fill="#CCA000"></path>
                    </g>
                    <g transform="translate(3.000000, 0.000000)">
                        <path d="M27.4,37.4 C28.6,36.6 29.4,34.9 29.4,32.7 C29.4,27.9 26,22.1 21.9,19.7 C20.4,18.8 18.9,18.5 17.7,18.7 C16.2,13.9 12.7,9.1 8.8,6.8 C6.1,5.2 3.6,5.1 1.9,6.1 L8.4,2.4 C10.2,1.4 12.6,1.5 15.3,3.1 C19.3,5.4 22.7,10.1 24.2,15 C25.4,14.8 26.8,15.1 28.4,16 C32.6,18.4 35.9,24.2 35.9,29 C35.9,30.8 35.4,32.2 34.6,33.1 L27.4,37.4 L27.4,37.4 Z" fill="#E0AF00"></path>
                        <path d="M27.4,38.5 C27,38.5 26.7,38.3 26.5,38 C26.2,37.5 26.3,36.8 26.8,36.5 C27.8,35.8 28.3,34.5 28.3,32.7 C28.3,28.3 25.2,22.8 21.3,20.6 C20,19.9 18.9,19.6 17.9,19.8 C17.4,19.9 16.8,19.6 16.6,19.1 C15.1,14.4 11.8,10 8.2,7.9 C5.9,6.6 3.9,6.3 2.4,7.2 L2.4,7.2 C1.9,7.5 1.2,7.3 0.9,6.8 C0.6,6.3 0.8,5.6 1.3,5.3 L7.8,1.6 C10,0.3 12.9,0.6 15.8,2.3 C19.7,4.5 23.2,9 25,13.9 L25,13.9 C26.2,13.9 27.6,14.3 28.9,15.1 C33.4,17.7 37,23.9 37,29.1 C37,31.1 36.5,32.8 35.4,34 C35.3,34.1 35.2,34.2 35.2,34.2 L28,38.3 C27.8,38.4 27.6,38.5 27.4,38.5 L27.4,38.5 Z M18.5,17.5 C19.7,17.5 21.1,17.9 22.4,18.7 C26.9,21.3 30.5,27.5 30.5,32.7 C30.5,33.3 30.5,33.8 30.4,34.4 L33.9,32.3 C34.5,31.5 34.8,30.4 34.8,29 C34.8,24.6 31.7,19.1 27.8,16.9 C26.5,16.2 25.4,15.9 24.4,16.1 C23.9,16.2 23.3,15.9 23.1,15.4 C21.6,10.7 18.3,6.3 14.7,4.2 C12.4,2.9 10.4,2.6 8.9,3.5 L6.6,4.8 C7.5,5 8.4,5.4 9.4,6 C13.2,8 16.7,12.6 18.5,17.5 L18.5,17.5 L18.5,17.5 Z" fill="#CCA000"></path>
                    </g>
                    <g transform="translate(19.000000, 13.000000)">
                        <path d="M1.7,5.6 L8.2,1.9" fill="#FDC400"></path>
                        <path d="M1.7,6.7 C1.3,6.7 1,6.5 0.7,6.2 C0.4,5.7 0.6,5 1.1,4.7 L7.6,1 C8.1,0.7 8.8,0.9 9.1,1.4 C9.4,1.9 9.2,2.6 8.7,2.9 L2.2,6.6 C2.1,6.7 1.9,6.7 1.7,6.7 L1.7,6.7 Z" fill="#CCA000"></path>
                    </g>
                </g>
                <g transform="translate(193.000000, 0.000000)">
                    <g transform="translate(0.000000, 4.000000)">
                        <path d="M23.6,41.8 L3.9,30.4 C2.4,29.6 1.2,27.3 1.2,25.3 L1.2,3.6 C1.2,1.7 2.4,0.7 3.9,1.6 L23.6,13 C25.1,13.8 26.3,16.1 26.3,18.1 L26.3,39.8 C26.2,41.8 25,42.7 23.6,41.8 L23.6,41.8 Z" fill="#FDC400"></path>
                        <path d="M24.6,43.2 C24.1,43.2 23.5,43 23,42.7 L23,42.7 L3.3,31.3 C1.5,30.3 0.1,27.6 0.1,25.3 L0.1,3.6 C0.1,2.2 0.6,1 1.6,0.5 C2.4,-5.35682609e-15 3.5,0.1 4.4,0.6 L24.1,12 C25.9,13 27.3,15.7 27.3,18 L27.3,39.7 C27.3,41.1 26.8,42.3 25.8,42.8 C25.5,43.1 25.1,43.2 24.6,43.2 L24.6,43.2 Z M24.1,40.9 C24.4,41.1 24.6,41.1 24.7,41 C24.8,40.9 25.1,40.6 25.1,39.8 L25.1,18.1 C25.1,16.6 24.1,14.6 23,14 L3.3,2.6 C3,2.4 2.8,2.4 2.7,2.5 C2.6,2.6 2.3,2.9 2.3,3.7 L2.3,25.4 C2.3,26.9 3.3,28.9 4.4,29.5 L24.1,40.9 L24.1,40.9 Z" fill="#CCA000"></path>
                    </g>
                    <g transform="translate(12.000000, 10.000000)">
                        <path d="M1.5,1.8 L1.5,30" fill="#FDC400"></path>
                        <path d="M1.5,31.1 C0.9,31.1 0.4,30.6 0.4,30 L0.4,1.8 C0.4,1.2 0.9,0.7 1.5,0.7 C2.1,0.7 2.6,1.2 2.6,1.8 L2.6,30 C2.6,30.6 2.1,31.1 1.5,31.1 L1.5,31.1 Z" fill="#CCA000"></path>
                    </g>
                    <g transform="translate(12.000000, 24.000000)">
                        <path d="M14.1,8.3 L1.9,1.2" fill="#FDC400"></path>
                        <path d="M14.1,9.4 C13.9,9.4 13.7,9.4 13.6,9.3 L1.4,2.3 C0.9,2 0.7,1.3 1,0.8 C1.3,0.3 2,0.1 2.5,0.4 L14.7,7.4 C15.2,7.7 15.4,8.4 15.1,8.9 C14.8,9.2 14.4,9.4 14.1,9.4 L14.1,9.4 Z" fill="#CCA000"></path>
                    </g>
                    <g>
                        <path d="M8.3,1.9 C8.8,1.5 9.5,1.4 10.3,1.9 L30,13.3 C31.5,14.1 32.7,16.4 32.7,18.4 L32.7,40.1 C32.7,41.1 32.4,41.8 31.9,42.1 L25.4,45.8 C25.9,45.4 26.2,44.7 26.2,43.8 L26.2,22.1 C26.2,20.2 25,17.9 23.5,17 L3.8,5.6 C3,5.2 2.3,5.2 1.8,5.6 L8.3,1.9 L8.3,1.9 Z" fill="#E0AF00"></path>
                        <path d="M25.5,47 C25.1,47 24.8,46.8 24.6,46.5 C24.3,46 24.4,45.4 24.8,45 C25,44.9 25.1,44.5 25.1,43.8 L25.1,22.1 C25.1,20.6 24.1,18.6 23,18 L3.3,6.6 C3.2,6.5 3,6.4 2.8,6.4 L2.5,6.6 C2,6.9 1.4,6.7 1.1,6.3 C0.8,5.8 0.8,5.2 1.3,4.8 C1.5,4.6 1.8,4.4 2.1,4.3 L7.9,1 C8.8,0.3 9.9,0.3 11,0.9 L30.7,12.3 C32.5,13.3 33.9,16 33.9,18.3 L33.9,40 C33.9,41.3 33.5,42.3 32.7,42.9 L32.6,43 L26.1,46.7 C25.9,46.9 25.7,47 25.5,47 L25.5,47 Z M5.1,5.1 L24.2,16.1 C26,17.1 27.4,19.8 27.4,22.1 L27.4,43.5 L31.4,41.2 C31.5,41 31.7,40.7 31.7,40.1 L31.7,18.4 C31.7,16.9 30.7,14.9 29.6,14.3 L9.9,2.9 C9.7,2.8 9.4,2.6 9.2,2.8 C9.1,2.9 9.1,2.9 9,2.9 L5.1,5.1 L5.1,5.1 Z" fill="#CCA000"></path>
                    </g>
                    <g transform="translate(25.000000, 27.000000)">
                        <path d="M1.2,5.3 L7.7,1.5" fill="#FDC400"></path>
                        <path d="M1.2,6.4 C0.8,6.4 0.5,6.2 0.2,5.9 C-0.1,5.4 0.1,4.7 0.6,4.4 L7.1,0.7 C7.6,0.4 8.3,0.6 8.6,1.1 C8.9,1.6 8.7,2.3 8.2,2.6 L1.7,6.3 C1.6,6.3 1.4,6.4 1.2,6.4 L1.2,6.4 Z" fill="#CCA000"></path>
                    </g>
                    <g transform="translate(12.000000, 6.000000)">
                        <path d="M2.1,5.4 L8.5,1.7" fill="#FDC400"></path>
                        <path d="M2.1,6.5 C1.7,6.5 1.4,6.3 1.1,6 C0.8,5.5 1,4.8 1.5,4.5 L8,0.8 C8.5,0.5 9.2,0.7 9.5,1.2 C9.8,1.7 9.6,2.4 9.1,2.7 L2.6,6.4 C2.4,6.4 2.2,6.5 2.1,6.5 L2.1,6.5 Z" fill="#CCA000"></path>
                    </g>
                </g>
                <g transform="translate(0.000000, 194.000000)">
                    <g>
                        <ellipse fill="#FDC400" transform="translate(19.207100, 22.577000) rotate(-30.000728) translate(-19.207100, -22.577000) " cx="19.207342" cy="22.5774202" rx="11" ry="19.1"></ellipse>
                        <path d="M25.2,41.1 C19.7,41.1 13.2,36.4 8.7,28.6 C6.1,24 4.6,19.1 4.6,14.8 C4.6,10.2 6.2,6.8 9.1,5.1 C15,1.7 24,6.7 29.7,16.5 C35.4,26.3 35.2,36.6 29.3,40 L29.3,40 C28,40.8 26.6,41.1 25.2,41.1 L25.2,41.1 Z M13.1,6.3 C12,6.3 11,6.5 10.2,7 C8,8.3 6.8,11 6.8,14.8 C6.8,18.8 8.1,23.3 10.6,27.5 C15.5,35.9 23.5,40.8 28.2,38.1 L28.2,38.1 C32.9,35.4 32.7,26 27.8,17.6 C23.8,10.8 17.7,6.3 13.1,6.3 L13.1,6.3 Z" fill="#CCA000"></path>
                    </g>
                    <path d="M28.1,27.8 L28.1,27 C28.1,26.3 27.6,25.5 27,25.1 L25,24 C24.9,23.3 24.7,22.6 24.4,22 L25.8,21.2 C26.2,21 26.2,20.2 25.8,19.4 L25.3,18.5 C24.9,17.8 24.2,17.4 23.8,17.6 L22.4,18.4 C22,17.8 21.5,17.3 20.9,16.9 L20.9,14.6 C20.9,13.9 20.4,13.1 19.8,12.7 L19.1,12.3 C18.5,12 18,12.2 18,12.9 L18,15.2 C17.5,15.1 17,15 16.5,15.1 L15.1,12.7 C14.7,12 14,11.6 13.6,11.8 L13.1,12.1 C12.7,12.3 12.7,13.1 13.1,13.9 L14.5,16.3 C14.2,16.7 14,17.1 13.9,17.6 L11.9,16.5 C11.3,16.2 10.8,16.4 10.8,17.1 L10.8,17.9 C10.8,18.6 11.3,19.4 11.9,19.8 L13.9,20.9 C14,21.6 14.2,22.3 14.5,22.9 L13.1,23.7 C12.7,23.9 12.7,24.7 13.1,25.5 L13.6,26.4 C14,27.1 14.7,27.5 15.1,27.3 L16.5,26.5 C16.9,27.1 17.4,27.6 18,28 L18,30.3 C18,31 18.5,31.8 19.1,32.2 L19.8,32.6 C20.4,32.9 20.9,32.7 20.9,32 L20.9,29.7 C21.4,29.8 21.9,29.9 22.4,29.8 L23.8,32.2 C24.2,32.9 24.9,33.3 25.3,33.1 L25.8,32.8 C26.2,32.6 26.2,31.8 25.8,31 L24.4,28.6 C24.7,28.2 24.9,27.8 25,27.3 L27,28.4 C27.6,28.8 28.1,28.5 28.1,27.8 L28.1,27.8 Z M20.1,26 C18.1,25.3 16.4,22.3 16.7,20.2 C16.9,19 17.8,18.5 18.9,18.9 C20.9,19.6 22.6,22.6 22.3,24.7 C22.1,25.9 21.2,26.4 20.1,26 L20.1,26 Z" fill="#CCA000"></path>
                    <g transform="translate(8.000000, 0.000000)">
                        <path d="M8.1,2.3 C13.4,-0.7 21.9,4.2 27.2,13.3 C32.5,22.4 32.5,32.3 27.2,35.3 L20.7,39 C26,36 26,26.1 20.7,17 C15.4,7.9 6.9,3 1.6,6 L8.1,2.3 L8.1,2.3 Z" fill="#E0AF00"></path>
                        <path d="M20.7,40.2 C20.3,40.2 20,40 19.7,39.7 C19.4,39.2 19.6,38.5 20.1,38.2 C24.8,35.5 24.6,26.1 19.7,17.7 C14.8,9.3 6.8,4.4 2.1,7.1 C1.6,7.4 0.9,7.2 0.6,6.7 C0.3,6.2 0.5,5.5 1,5.2 L7.5,1.5 L7.5,1.5 C13.4,-1.9 22.4,3.1 28.1,12.9 C30.7,17.5 32.2,22.4 32.2,26.7 C32.2,31.3 30.6,34.7 27.7,36.4 L21.2,40.1 C21.1,40.1 20.9,40.2 20.7,40.2 L20.7,40.2 Z M7,4.2 C12,5.1 17.7,9.6 21.6,16.5 C25.6,23.4 26.7,30.5 24.9,35.3 L26.5,34.4 C28.7,33.1 29.9,30.4 29.9,26.6 C29.9,22.6 28.6,18.1 26.1,13.9 C21.2,5.5 13.2,0.6 8.5,3.3 L7,4.2 L7,4.2 Z" fill="#CCA000"></path>
                    </g>
                </g>
                <g transform="translate(92.000000, 477.000000)">
                    <g>
                        <ellipse fill="#FDC400" transform="translate(19.693800, 22.903400) rotate(-30.000728) translate(-19.693800, -22.903400) " cx="19.694042" cy="22.9038202" rx="11" ry="19.1"></ellipse>
                        <path d="M25.8,41.4 C23.8,41.4 21.5,40.7 19.2,39.4 C15.4,37.2 11.9,33.5 9.3,28.9 C6.7,24.3 5.2,19.4 5.2,15.1 C5.2,10.5 6.8,7.1 9.7,5.4 C12.6,3.7 16.4,4.1 20.3,6.3 C24.1,8.5 27.6,12.2 30.2,16.8 C32.8,21.4 34.3,26.3 34.3,30.6 C34.3,35.2 32.7,38.6 29.8,40.3 L29.8,40.3 C28.6,41.1 27.2,41.4 25.8,41.4 L25.8,41.4 Z M13.7,6.6 C12.6,6.6 11.6,6.9 10.7,7.4 C8.5,8.7 7.3,11.4 7.3,15.2 C7.3,19.2 8.6,23.7 11.1,27.9 C13.6,32.1 16.8,35.6 20.2,37.6 C23.4,39.5 26.4,39.8 28.6,38.5 L28.6,38.5 C30.8,37.2 32,34.5 32,30.7 C32,26.7 30.7,22.2 28.2,18 C25.7,13.8 22.5,10.3 19.1,8.3 C17.2,7.2 15.4,6.6 13.7,6.6 L13.7,6.6 Z" fill="#CCA000"></path>
                    </g>
                    <path d="M20.1,34.1 L20.1,34.1 C19.4,34.1 18.8,33.5 18.8,32.8 L18.8,22.8 C18.8,22.1 19.4,21.5 20.1,21.5 C20.8,21.5 21.4,22.1 21.4,22.8 L21.4,32.8 C21.4,33.5 20.8,34.1 20.1,34.1 L20.1,34.1 Z" fill="#CCA000"></path>
                    <path d="M20.1,24.1 C19.7,24.1 19.2,23.9 19,23.5 L13.1,13.9 C12.7,13.3 12.9,12.5 13.5,12.1 C14.1,11.7 14.9,11.9 15.3,12.5 L21.2,22.1 C21.6,22.7 21.4,23.5 20.8,23.9 C20.6,24 20.3,24.1 20.1,24.1 L20.1,24.1 Z" fill="#CCA000"></path>
                    <g transform="translate(9.000000, 0.000000)">
                        <path d="M7.7,2.7 C13,-0.3 21.5,4.6 26.8,13.7 C32.1,22.8 32.1,32.7 26.8,35.7 L20.3,39.4 C25.6,36.4 25.6,26.5 20.3,17.4 C15,8.3 6.5,3.4 1.2,6.4 L7.7,2.7 L7.7,2.7 Z" fill="#E0AF00"></path>
                        <path d="M20.3,40.5 C19.9,40.5 19.6,40.3 19.3,40 C19,39.5 19.2,38.8 19.7,38.5 L19.7,38.5 C21.9,37.2 23.1,34.5 23.1,30.7 C23.1,26.7 21.8,22.2 19.3,18 C16.8,13.8 13.6,10.3 10.2,8.3 C7,6.4 4,6.1 1.8,7.4 L1.8,7.4 C1.3,7.7 0.6,7.5 0.3,7 C1.65978342e-14,6.5 0.2,5.8 0.7,5.5 L7.2,1.8 C10.1,0.1 13.9,0.5 17.8,2.7 C21.6,4.9 25.1,8.6 27.7,13.2 C30.3,17.8 31.8,22.7 31.8,27 C31.8,31.6 30.2,35 27.3,36.7 L20.8,40.4 L20.8,40.4 C20.6,40.5 20.4,40.5 20.3,40.5 L20.3,40.5 Z M6.6,4.6 C8.1,4.9 9.7,5.5 11.3,6.4 C15.1,8.6 18.6,12.3 21.2,16.9 C23.8,21.5 25.3,26.4 25.3,30.7 C25.3,32.6 25,34.2 24.5,35.7 L26.2,34.7 C28.4,33.4 29.6,30.7 29.6,26.9 C29.6,22.9 28.3,18.4 25.8,14.2 C23.3,10 20.1,6.5 16.7,4.5 C13.5,2.6 10.5,2.3 8.3,3.6 L8.3,3.6 L6.6,4.6 L6.6,4.6 Z" fill="#CCA000"></path>
                    </g>
                </g>
                <g transform="translate(9.000000, 380.000000)">
                    <g transform="translate(0.000000, 4.000000)">
                        <path d="M1.1,27.4 L1.1,4 C1.1,1.9 2.4,0.9 4,1.8 L16.3,8.9 C17.9,9.8 19.2,12.3 19.2,14.4 L19.2,37.9 C19.2,40 17.9,41 16.3,40.1 L4,32.9 C2.4,32 1.1,29.5 1.1,27.4 L1.1,27.4 Z" fill="#FDC400"></path>
                        <path d="M17.5,41.5 C17,41.5 16.4,41.3 15.8,41 L3.5,33.9 C1.6,32.8 0.1,30 0.1,27.5 L0.1,4 C0.1,2.5 0.7,1.3 1.6,0.7 C2.5,0.2 3.5,0.3 4.6,0.8 L16.9,7.9 C18.8,9 20.3,11.8 20.3,14.3 L20.3,37.8 C20.3,39.3 19.7,40.5 18.8,41.1 C18.4,41.4 17.9,41.5 17.5,41.5 L17.5,41.5 Z M2.9,2.5 L2.7,2.5 C2.5,2.6 2.3,3 2.3,3.9 L2.3,27.4 C2.3,29.1 3.4,31.2 4.6,31.9 L16.9,39 C17.1,39.1 17.4,39.3 17.7,39.1 C17.9,39 18.1,38.6 18.1,37.7 L18.1,14.2 C18.1,12.5 17,10.4 15.8,9.7 L3.5,2.6 C3.3,2.7 3.1,2.5 2.9,2.5 L2.9,2.5 Z" fill="#CCA000"></path>
                    </g>
                    <g transform="translate(0.000000, 27.000000)">
                        <path d="M1.3,1.5 L19,11.8" fill="#FDC400"></path>
                        <path d="M19,12.9 C18.8,12.9 18.6,12.9 18.5,12.8 L0.8,2.6 C0.3,2.3 0.1,1.6 0.4,1.1 C0.7,0.6 1.4,0.4 1.9,0.7 L19.6,10.9 C20.1,11.2 20.3,11.9 20,12.4 C19.8,12.7 19.4,12.9 19,12.9 L19,12.9 Z" fill="#CCA000"></path>
                    </g>
                    <g transform="translate(0.000000, 9.000000)">
                        <path d="M1.3,2 L19,12.2" fill="#FDC400"></path>
                        <path d="M19,13.3 C18.8,13.3 18.6,13.3 18.5,13.2 L0.8,3 C0.3,2.7 0.1,2 0.4,1.5 C0.7,1 1.4,0.8 1.9,1.1 L19.6,11.3 C20.1,11.6 20.3,12.3 20,12.8 C19.8,13.1 19.4,13.3 19,13.3 L19,13.3 Z" fill="#CCA000"></path>
                    </g>
                    <g transform="translate(1.000000, 0.000000)">
                        <path d="M23.9,40.3 C24.4,39.9 24.7,39.1 24.7,38.2 L24.7,14.7 C24.7,12.6 23.4,10.1 21.8,9.2 L9.5,2.1 C8.7,1.6 8,1.7 7.5,2.1 L1,5.8 C1.5,5.4 2.2,5.4 3,5.8 L15.3,12.9 C16.9,13.8 18.2,16.3 18.2,18.4 L18.2,41.9 C18.2,42.9 17.9,43.6 17.4,44 L23.9,40.3 L23.9,40.3 Z" fill="#E0AF00"></path>
                        <path d="M17.5,45.1 C17.2,45.1 16.8,44.9 16.6,44.6 C16.3,44.1 16.3,43.5 16.8,43.1 C17,42.9 17.2,42.5 17.2,41.8 L17.2,18.3 C17.2,16.6 16.1,14.5 14.9,13.8 L2.6,6.7 C2.4,6.6 2.1,6.5 1.9,6.5 L1.7,6.6 C1.2,6.9 0.6,6.7 0.2,6.3 C-0.1,5.8 -3.1918912e-15,5.2 0.5,4.8 C0.7,4.7 0.8,4.6 1,4.5 L7,1 C7.9,0.4 9,0.4 10.2,1 L22.5,8.1 C24.4,9.2 25.9,12 25.9,14.5 L25.9,38 C25.9,39.3 25.5,40.3 24.8,41 C24.7,41 24.7,41.1 24.6,41.1 L18,45 C17.8,45.1 17.6,45.1 17.5,45.1 L17.5,45.1 Z M4.1,5.2 L15.8,12 C17.7,13.1 19.2,15.9 19.2,18.4 L19.2,41.7 L23.1,39.4 C23.3,39.2 23.4,38.8 23.4,38.1 L23.4,14.6 C23.4,12.9 22.3,10.8 21.1,10.1 L8.9,3 C8.7,2.9 8.3,2.7 8.1,2.9 L8,3 L4.1,5.2 L4.1,5.2 Z" fill="#CCA000"></path>
                    </g>
                </g>
                <g transform="translate(190.000000, 380.000000)">
                    <g transform="translate(0.000000, 4.000000)">
                        <path d="M28.7,39.8 L4.8,26 C3,25 1.5,22.2 1.5,19.8 L1.5,4.6 C1.5,2.2 3,1.1 4.8,2.1 L28.7,15.9 C30.5,16.9 32,19.7 32,22.1 L32,37.3 C31.9,39.7 30.5,40.8 28.7,39.8 L28.7,39.8 Z" fill="#FDC400"></path>
                        <path d="M30,41.2 C29.4,41.2 28.8,41 28.2,40.7 L4.3,26.9 C2.2,25.7 0.5,22.5 0.5,19.7 L0.5,4.5 C0.5,2.8 1.1,1.5 2.2,0.9 C3.1,0.4 4.3,0.4 5.4,1.1 L29.3,14.9 C31.4,16.1 33.1,19.3 33.1,22.1 L33.1,37.3 C33.1,39 32.5,40.3 31.4,40.9 C30.9,41.1 30.5,41.2 30,41.2 L30,41.2 Z M3.5,2.8 C3.4,2.8 3.3,2.8 3.2,2.9 C2.9,3.1 2.6,3.6 2.6,4.6 L2.6,19.8 C2.6,21.8 3.9,24.2 5.3,25.1 L29.2,38.9 L29.2,38.9 C29.4,39 29.9,39.3 30.2,39.1 C30.5,38.9 30.8,38.4 30.8,37.4 L30.8,22.2 C30.8,20.2 29.5,17.8 28.1,16.9 L4.2,3 C4,2.9 3.7,2.8 3.5,2.8 L3.5,2.8 Z" fill="#CCA000"></path>
                    </g>
                    <g transform="translate(1.000000, 22.000000)">
                        <path d="M1.2,1.3 L30.5,18.2" fill="#FDC400"></path>
                        <path d="M30.5,19.3 C30.3,19.3 30.1,19.3 30,19.2 L0.7,2.3 C0.2,2 -3.230749e-14,1.3 0.3,0.8 C0.6,0.3 1.3,0.1 1.8,0.4 L31.1,17.3 C31.6,17.6 31.8,18.3 31.5,18.8 C31.3,19.1 30.9,19.3 30.5,19.3 L30.5,19.3 Z" fill="#CCA000"></path>
                    </g>
                    <g transform="translate(1.000000, 0.000000)">
                        <path d="M36.5,40.1 C37.1,39.6 37.4,38.8 37.4,37.6 L37.4,22.4 C37.4,20 35.9,17.2 34.1,16.2 L10.2,2.4 C9.3,1.9 8.5,1.9 7.9,2.3 L1.4,6 C2,5.6 2.8,5.5 3.7,6.1 L27.6,19.9 C29.4,20.9 30.9,23.7 30.9,26.1 L30.9,41.3 C30.9,42.5 30.5,43.4 30,43.8 L36.5,40.1 L36.5,40.1 Z" fill="#E0AF00"></path>
                        <path d="M30,44.9 C29.6,44.9 29.3,44.7 29.1,44.4 C28.8,43.9 28.9,43.3 29.3,42.9 C29.6,42.6 29.8,42 29.8,41.3 L29.8,26.1 C29.8,24.1 28.5,21.7 27.1,20.8 L3.2,7 C2.9,6.8 2.6,6.7 2.3,6.8 L2,7 C1.5,7.3 0.9,7.1 0.5,6.7 C0.2,6.2 0.3,5.6 0.8,5.2 C1,5.1 1.2,5 1.3,4.9 L7.3,1.4 C8.3,0.7 9.5,0.7 10.8,1.4 L34.7,15.2 C36.8,16.4 38.5,19.6 38.5,22.4 L38.5,37.6 C38.5,39.1 38,40.3 37.1,41 L37,41.1 L30.5,44.8 C30.4,44.8 30.2,44.9 30,44.9 L30,44.9 Z M4.8,5.4 L28.3,19 C30.4,20.2 32.1,23.4 32.1,26.2 L32.1,41.4 C32.1,41.4 32.1,41.4 32.1,41.5 L35.9,39.3 C36.2,39 36.4,38.4 36.4,37.7 L36.4,22.5 C36.4,20.5 35.1,18.1 33.7,17.2 L9.8,3.4 C9.5,3.2 9,3 8.7,3.3 L8.6,3.4 L4.8,5.4 L4.8,5.4 Z" fill="#CCA000"></path>
                    </g>
                </g>
                <g transform="translate(479.000000, 98.000000)">
                    <g transform="translate(0.000000, 4.000000)">
                        <path d="M21.5,37 L13.5,32.4 L7.2,36 L7.2,28.7 L4.6,27.2 C3,26.3 1.7,24 1.7,22.2 L1.7,3.2 C1.7,1.4 3,0.7 4.6,1.6 L21.6,11.4 C23.2,12.3 24.5,14.6 24.5,16.4 L24.5,35.4 C24.4,37.2 23.1,37.9 21.5,37 L21.5,37 Z" fill="#FDC400"></path>
                        <path d="M22.8,38.5 C22.2,38.5 21.5,38.3 20.9,37.9 L20.9,37.9 L13.4,33.6 L7.6,36.9 C7.3,37.1 6.8,37.1 6.5,36.9 C6.2,36.7 6,36.3 6,35.9 L6,29.2 L3.9,28 C1.9,26.9 0.4,24.3 0.4,22.1 L0.4,3.1 C0.4,1.9 0.9,0.9 1.8,0.4 C2.7,-0.1 3.9,9.27036226e-15 5,0.6 L22,10.4 C24,11.5 25.5,14.1 25.5,16.3 L25.5,35.3 C25.5,36.5 25,37.5 24.1,38 C23.7,38.3 23.3,38.5 22.8,38.5 L22.8,38.5 Z M22,36 C22.5,36.3 22.9,36.3 23,36.2 C23.2,36.1 23.3,35.8 23.3,35.4 L23.3,16.4 C23.3,15 22.2,13.1 20.9,12.4 L3.9,2.6 C3.4,2.3 3,2.3 2.9,2.4 C2.7,2.5 2.6,2.8 2.6,3.2 L2.6,22.2 C2.6,23.6 3.7,25.5 5,26.2 L7.6,27.7 C7.9,27.9 8.1,28.3 8.1,28.7 L8.1,34.1 L12.8,31.4 C13.1,31.2 13.6,31.2 13.9,31.4 L22,36 L22,36 Z" fill="#CCA000"></path>
                    </g>
                    <path d="M15,31.3 C15,30 14.1,28.4 12.9,27.7 C11.8,27 10.8,27.6 10.8,28.9 C10.8,30.2 11.7,31.8 12.9,32.5 C14.1,33.2 15,32.7 15,31.3 L15,31.3 Z" fill="#CCA000"></path>
                    <path d="M13,26 C11.9,25.4 11.1,23.9 11.1,22.7 L11.1,15.9 C11.1,14.7 12,14.2 13,14.8 C14.1,15.4 14.9,16.9 14.9,18.1 L14.9,24.9 C14.9,26.1 14,26.6 13,26 L13,26 Z" fill="#CCA000"></path>
                    <g transform="translate(1.000000, 0.000000)">
                        <path d="M29.1,37.4 C29.6,37.1 29.9,36.5 29.9,35.6 L29.9,16.6 C29.9,14.8 28.6,12.6 27,11.6 L10,1.8 C9.2,1.3 8.5,1.3 7.9,1.6 L1.4,5.3 C1.9,5 2.7,5.1 3.5,5.5 L20.5,15.3 C22.1,16.2 23.4,18.5 23.4,20.3 L23.4,39.3 C23.4,40.1 23.1,40.7 22.6,41.1 L29.1,37.4 L29.1,37.4 Z" fill="#E0AF00"></path>
                        <path d="M22.6,42.2 C22.2,42.2 21.9,42 21.7,41.7 C21.4,41.2 21.5,40.5 22,40.2 C22.2,40.1 22.3,39.8 22.3,39.4 L22.3,20.4 C22.3,19 21.2,17.1 19.9,16.4 L2.9,6.6 C2.4,6.3 2,6.3 1.9,6.4 C1.4,6.7 0.7,6.5 0.4,6 C0.1,5.5 0.3,4.8 0.8,4.5 L7.3,0.8 C8.2,0.3 9.4,0.4 10.5,1 L27.5,10.8 C29.5,11.9 31,14.5 31,16.7 L31,35.7 C31,36.9 30.5,37.9 29.7,38.4 L29.7,38.4 L23.2,42.1 C23,42.2 22.8,42.2 22.6,42.2 L22.6,42.2 Z M4.4,4.9 L21,14.5 C23,15.6 24.5,18.2 24.5,20.4 L24.5,38.8 L28.5,36.5 C28.7,36.4 28.8,36.1 28.8,35.7 L28.8,16.7 C28.8,15.3 27.7,13.4 26.4,12.7 L9.4,2.9 C8.9,2.6 8.5,2.6 8.4,2.7 L4.4,4.9 L4.4,4.9 Z" fill="#CCA000"></path>
                    </g>
                </g>
                <g transform="translate(293.000000, 99.000000)">
                    <g transform="translate(0.000000, 3.000000)">
                        <polygon fill="#FDC400" points="21.2 36.7 11 1.9 1.2 25 11.1 23.6"></polygon>
                        <path d="M21.2,37.8 C20.9,37.8 20.5,37.6 20.3,37.4 L10.6,24.8 L1.3,26.1 C0.9,26.2 0.5,26 0.3,25.7 C0.1,25.4 -8.21565038e-15,25 0.2,24.6 L10,1.5 C10.2,1.1 10.6,0.8 11.1,0.8 C11.6,0.8 12,1.1 12.1,1.6 L22.3,36.4 C22.4,36.9 22.2,37.4 21.7,37.7 C21.5,37.8 21.4,37.8 21.2,37.8 L21.2,37.8 Z M11.1,22.5 C11.4,22.5 11.8,22.7 12,22.9 L18.5,31.4 L10.8,5.1 L2.9,23.6 L10.9,22.5 L11.1,22.5 L11.1,22.5 Z" fill="#CCA000"></path>
                    </g>
                    <g transform="translate(9.000000, 0.000000)">
                        <polygon fill="#E0AF00" points="8.5 1.1 18.7 36 12.2 39.7 2 4.9"></polygon>
                        <path d="M12.2,40.8 C12.1,40.8 11.9,40.8 11.8,40.7 C11.5,40.6 11.2,40.3 11.2,40 L1,5.2 C0.9,4.7 1.1,4.2 1.5,3.9 L8,0.2 C8.3,5.03763697e-14 8.6,5.03763697e-14 9,0.1 C9.3,0.2 9.6,0.5 9.6,0.8 L19.8,35.6 C19.9,36.1 19.7,36.6 19.3,36.9 L12.8,40.6 C12.6,40.7 12.4,40.8 12.2,40.8 L12.2,40.8 Z M3.3,5.4 L12.9,38 L17.4,35.4 L7.8,2.8 L3.3,5.4 L3.3,5.4 Z" fill="#CCA000"></path>
                    </g>
                </g>
                <g transform="translate(387.000000, 195.000000)">
                    <g transform="translate(0.000000, 3.000000)">
                        <path d="M20.1,19.6 C20.1,13.6 15.9,6.2 10.6,3.2 C5.4,0.2 1.1,2.6 1.1,8.6 C1.1,14.6 10.6,35.2 10.6,35.2 C10.6,35.2 20.1,25.6 20.1,19.6 L20.1,19.6 Z" fill="#FDC400"></path>
                        <path d="M10.6,36.3 L10.4,36.3 C10,36.2 9.7,36 9.6,35.7 C9.2,34.9 0,14.9 0,8.6 C0,5.3 1.2,2.8 3.3,1.5 C5.4,0.3 8.2,0.5 11.1,2.2 C16.6,5.4 21.1,13.2 21.1,19.6 C21.1,26 11.7,35.6 11.3,36 C11.2,36.2 10.9,36.3 10.6,36.3 L10.6,36.3 Z M6.4,3 C5.7,3 5,3.2 4.5,3.5 C3.1,4.3 2.3,6.2 2.3,8.7 C2.3,13 7.7,25.9 11,33.4 C14,30.1 19.1,23.7 19.1,19.7 C19.1,14 15.1,7.1 10.2,4.2 C8.7,3.4 7.5,3 6.4,3 L6.4,3 Z" fill="#CCA000"></path>
                    </g>
                    <path d="M15.4,20.1 C15.4,17.1 13.3,13.4 10.7,11.9 C8.1,10.4 6,11.6 6,14.6 C6,17.6 8.1,21.3 10.7,22.8 C13.2,24.3 15.4,23.1 15.4,20.1 L15.4,20.1 Z" fill="#CCA000"></path>
                    <g transform="translate(3.000000, 0.000000)">
                        <path d="M8.8,1.3 C10.3,1 12.1,1.4 14.1,2.5 C19.3,5.5 23.6,12.9 23.6,18.9 C23.6,24.9 14.1,34.5 14.1,34.5 L7.6,38.2 C7.6,38.2 17.1,28.6 17.1,22.6 C17.1,16.6 12.9,9.2 7.6,6.2 C5.6,5.1 2.8,5 1.3,5.3 L8.8,1.3 L8.8,1.3 Z" fill="#E0AF00"></path>
                        <path d="M7.6,39.3 C7.3,39.3 6.9,39.2 6.7,38.9 C6.4,38.5 6.4,37.8 6.8,37.5 C9.4,34.9 16,27.2 16,22.6 C16,16.9 12,10 7.1,7.1 C5.4,6.1 2.8,6.1 1.6,6.3 C1.1,6.4 0.5,6.1 0.4,5.6 C0.2,5.1 0.4,4.5 0.9,4.3 L8.4,0.3 C8.5,0.2 8.6,0.2 8.7,0.2 C10.5,-0.2 12.6,0.3 14.8,1.5 C20.3,4.7 24.8,12.5 24.8,18.9 C24.8,25.3 15.4,34.9 15,35.3 C14.9,35.4 14.9,35.4 14.8,35.5 L8.3,39.2 C8,39.3 7.8,39.3 7.6,39.3 L7.6,39.3 Z M5.5,4.3 C6.4,4.5 7.4,4.8 8.2,5.3 C13.7,8.5 18.2,16.3 18.2,22.7 C18.2,26.2 15.3,30.7 12.7,34.1 L13.4,33.7 C16,31 22.5,23.5 22.5,18.9 C22.5,13.2 18.5,6.3 13.6,3.4 C12,2.5 10.5,2.1 9.2,2.3 L5.5,4.3 L5.5,4.3 Z" fill="#CCA000"></path>
                    </g>
                </g>
                <g transform="translate(383.000000, 381.000000)">
                    <g transform="translate(0.000000, 4.000000)">
                        <path d="M25.1,38.5 L4.1,26.4 C3,25.8 2.1,24.1 2.1,22.8 L2.1,2.5 C2.1,1.2 3,0.6 4.1,1.3 L10.3,4.9 L13.1,10.9 L25.1,17.8 C26.2,18.4 27.1,20.1 27.1,21.4 L27.1,37.3 C27.1,38.6 26.2,39.2 25.1,38.5 L25.1,38.5 Z" fill="#FDC400"></path>
                        <path d="M26,39.9 C25.5,39.9 25,39.8 24.5,39.5 L3.5,27.4 C2,26.6 0.9,24.6 0.9,22.9 L0.9,2.6 C0.9,1.6 1.3,0.7 2.1,0.3 C2.8,-0.1 3.8,-0.1 4.6,0.4 L10.8,4 C11,4.1 11.1,4.3 11.2,4.5 L13.9,10.1 L25.6,16.9 C27.1,17.7 28.2,19.7 28.2,21.4 L28.2,37.3 C28.2,38.3 27.8,39.2 27,39.6 C26.7,39.8 26.4,39.9 26,39.9 L26,39.9 Z M3.2,2.2 C3.2,2.3 3.1,2.4 3.1,2.6 L3.1,22.9 C3.1,23.8 3.8,25.1 4.6,25.5 L25.6,37.6 L25.6,37.6 C25.8,37.7 25.9,37.7 25.9,37.7 C25.9,37.6 26,37.5 26,37.3 L26,21.4 C26,20.5 25.3,19.2 24.5,18.8 L12.5,11.9 C12.3,11.8 12.2,11.6 12.1,11.4 L9.4,5.8 L3.5,2.4 C3.4,2.2 3.3,2.2 3.2,2.2 L3.2,2.2 Z" fill="#CCA000"></path>
                    </g>
                    <g transform="translate(1.000000, 0.000000)">
                        <path d="M32.4,38.4 C32.5,38.2 32.6,37.9 32.6,37.6 L32.6,21.7 C32.6,20.4 31.7,18.8 30.6,18.1 L18.6,11.2 L15.8,5.2 L9.6,1.6 C9,1.2 8.4,1.2 8,1.6 L1.5,5.3 C1.9,5 2.5,4.9 3.1,5.3 L9.3,8.9 L12.1,14.9 L24.1,21.8 C25.2,22.4 26.1,24.1 26.1,25.4 L26.1,41.6 C26.1,41.9 26,42.2 25.9,42.4 L32.4,38.4 L32.4,38.4 Z" fill="#E0AF00"></path>
                        <path d="M25.9,43.5 C25.6,43.5 25.4,43.4 25.2,43.2 C24.8,42.9 24.7,42.4 24.9,41.9 C24.9,41.8 25,41.7 25,41.5 L25,25.3 C25,24.4 24.3,23.1 23.5,22.7 L11.5,15.8 C11.3,15.7 11.2,15.5 11.1,15.3 L8.4,9.7 L2.5,6.3 C2.4,6.2 2.2,6.2 2.2,6.2 L2,6.3 C1.5,6.6 0.9,6.4 0.6,6 C0.3,5.5 0.3,4.9 0.8,4.5 C1,4.3 1.2,4.2 1.4,4.1 L7.3,0.7 C8.1,0.1 9.1,0.1 10.1,0.7 L16.3,4.3 C16.5,4.4 16.6,4.6 16.7,4.8 L19.4,10.4 L31.1,17.2 C32.6,18 33.7,20 33.7,21.7 L33.7,37.6 C33.7,38.1 33.6,38.5 33.4,38.9 C33.3,39.1 33.2,39.3 33,39.4 L26.5,43.4 C26.3,43.5 26.1,43.5 25.9,43.5 L25.9,43.5 Z M12.9,14.1 L24.6,20.9 C26.1,21.7 27.2,23.7 27.2,25.4 L27.2,40.4 L31.5,37.7 L31.5,37.6 L31.5,21.7 C31.5,20.8 30.8,19.5 30,19.1 L18,12.2 C17.8,12.1 17.7,11.9 17.6,11.7 L14.9,6.1 L9,2.7 C8.8,2.6 8.7,2.6 8.7,2.6 C8.7,2.6 8.6,2.7 8.5,2.7 L4.5,5 L9.8,8.1 C10,8.2 10.1,8.4 10.2,8.6 L12.9,14.1 L12.9,14.1 Z" fill="#CCA000"></path>
                    </g>
                    <g transform="translate(9.000000, 4.000000)">
                        <path d="M1.3,5 L7.7,1.3" fill="#FDC400"></path>
                        <path d="M1.3,6.1 C0.9,6.1 0.6,5.9 0.3,5.6 C1.56541446e-14,5.1 0.2,4.4 0.7,4.1 L7.2,0.4 C7.7,0.1 8.4,0.3 8.7,0.8 C9,1.3 8.8,2 8.3,2.3 L1.8,6 C1.6,6.1 1.4,6.1 1.3,6.1 L1.3,6.1 Z" fill="#CCA000"></path>
                    </g>
                    <g transform="translate(11.000000, 9.000000)">
                        <path d="M2.1,5.6 L8.6,1.9" fill="#FDC400"></path>
                        <path d="M2.1,6.7 C1.7,6.7 1.4,6.5 1.1,6.2 C0.8,5.7 1,5 1.5,4.7 L8,1 C8.5,0.7 9.2,0.9 9.5,1.4 C9.8,1.9 9.6,2.6 9.1,2.9 L2.6,6.6 C2.5,6.7 2.3,6.7 2.1,6.7 L2.1,6.7 Z" fill="#CCA000"></path>
                    </g>
                </g>
                <g transform="translate(475.000000, 476.000000)">
                    <g transform="translate(0.000000, 4.000000)">
                        <path d="M28.8,38.1 L5.2,24.5 C3.5,23.5 2.1,20.8 2.1,18.5 L2.1,4.2 C2.1,1.9 3.5,0.8 5.2,1.8 L28.8,15.4 C30.5,16.4 31.9,19.1 31.9,21.4 L31.9,35.7 C31.9,38 30.5,39.1 28.8,38.1 L28.8,38.1 Z" fill="#FDC400"></path>
                        <path d="M30,39.6 C29.4,39.6 28.8,39.4 28.2,39.1 L28.2,39.1 L4.6,25.5 C2.5,24.3 0.9,21.2 0.9,18.5 L0.9,4.2 C0.9,2.6 1.5,1.3 2.5,0.7 C3.4,0.2 4.5,0.2 5.7,0.9 L29.3,14.5 C31.4,15.7 33,18.8 33,21.5 L33,35.8 C33,37.4 32.4,38.7 31.4,39.3 C31,39.4 30.5,39.6 30,39.6 L30,39.6 Z M29.3,37.1 C29.5,37.2 30,37.4 30.3,37.3 C30.6,37.2 30.8,36.7 30.8,35.7 L30.8,21.4 C30.8,19.5 29.6,17.1 28.2,16.3 L4.6,2.7 C4.4,2.6 3.9,2.4 3.6,2.5 C3.3,2.6 3.1,3.1 3.1,4.1 L3.1,18.4 C3.1,20.3 4.3,22.7 5.7,23.5 L29.3,37.1 L29.3,37.1 Z" fill="#CCA000"></path>
                    </g>
                    <path d="M27.4,28.5 L25.5,27.4 C24.6,26.9 23.8,25.4 23.8,24.2 L23.8,22.7 C23.8,21.5 24.6,20.9 25.5,21.4 L27.4,22.5 C28.3,23 29.1,24.5 29.1,25.7 L29.1,27.2 C29.1,28.5 28.3,29.1 27.4,28.5 L27.4,28.5 Z" fill="#CCA000"></path>
                    <path d="M17,21.8 C16.8,21.8 16.6,21.8 16.5,21.7 L6.4,15.9 C5.9,15.6 5.7,14.9 6,14.4 C6.3,13.9 7,13.7 7.5,14 L17.6,19.8 C18.1,20.1 18.3,20.8 18,21.3 C17.7,21.6 17.3,21.8 17,21.8 L17,21.8 Z" fill="#CCA000"></path>
                    <path d="M17,25.9 C16.8,25.9 16.6,25.9 16.5,25.8 L6.4,20 C5.9,19.7 5.7,19 6,18.5 C6.3,18 7,17.8 7.5,18.1 L17.6,23.9 C18.1,24.2 18.3,24.9 18,25.4 C17.7,25.7 17.3,25.9 17,25.9 L17,25.9 Z" fill="#CCA000"></path>
                    <path d="M17,30 C16.8,30 16.6,30 16.5,29.9 L6.4,24.1 C5.9,23.8 5.7,23.1 6,22.6 C6.3,22.1 7,21.9 7.5,22.2 L17.6,28 C18.1,28.3 18.3,29 18,29.5 C17.7,29.8 17.3,30 17,30 L17,30 Z" fill="#CCA000"></path>
                    <g transform="translate(1.000000, 0.000000)">
                        <path d="M36.5,38.4 C37.1,38 37.4,37.1 37.4,36 L37.4,21.7 C37.4,19.4 36,16.7 34.3,15.7 L10.6,2 C9.7,1.5 8.9,1.5 8.4,1.9 L1.9,5.6 C2.5,5.2 3.3,5.2 4.1,5.7 L27.7,19.3 C29.4,20.3 30.8,23 30.8,25.3 L30.8,39.6 C30.8,40.8 30.4,41.6 29.9,42 L36.5,38.4 L36.5,38.4 Z" fill="#E0AF00"></path>
                        <path d="M30,43.2 C29.6,43.2 29.3,43 29.1,42.7 C28.8,42.2 28.9,41.6 29.4,41.2 C29.6,41 29.9,40.5 29.9,39.6 L29.9,25.3 C29.9,23.4 28.7,21 27.3,20.2 L3.7,6.6 C3.4,6.5 3.1,6.3 2.8,6.4 L2.5,6.6 C2,6.9 1.4,6.7 1,6.3 C0.7,5.8 0.8,5.2 1.3,4.8 C1.5,4.7 1.6,4.6 1.8,4.5 L7.8,1 C8.7,0.3 10,0.3 11.2,1 L34.8,14.6 C36.9,15.8 38.5,18.9 38.5,21.6 L38.5,36 C38.5,37.5 38,38.6 37.1,39.3 L37,39.4 L30.5,43.1 C30.4,43.2 30.2,43.2 30,43.2 L30,43.2 Z M5.2,5.1 L28.3,18.4 C30.4,19.6 32,22.7 32,25.4 L32,39.7 L35.8,37.5 C36,37.3 36.3,36.8 36.3,36 L36.3,21.7 C36.3,19.8 35.1,17.4 33.7,16.6 L10.1,3 C9.8,2.9 9.4,2.6 9.1,2.9 L9,3 L5.2,5.1 L5.2,5.1 Z" fill="#CCA000"></path>
                    </g>
                </g>
                <g transform="translate(293.000000, 475.000000)">
                    <g transform="translate(0.000000, 4.000000)">
                        <path d="M1.2,27.6 L1.2,2.7 C1.2,1.6 2,1.2 3,1.7 L13.9,8 L21.1,20.2 L21.1,39.1 C21.1,40.2 20.3,40.6 19.3,40.1 L3,30.7 C2,30.1 1.2,28.7 1.2,27.6 L1.2,27.6 Z" fill="#FDC400"></path>
                        <path d="M20.1,41.4 C19.7,41.4 19.2,41.3 18.8,41 L2.5,31.6 C1.2,30.8 0.2,29.1 0.2,27.6 L0.2,2.7 C0.2,1.8 0.6,1 1.3,0.6 C2,0.2 2.8,0.3 3.7,0.7 L14.6,7 C14.8,7.1 14.9,7.2 15,7.4 L22.2,19.6 C22.3,19.8 22.4,20 22.4,20.2 L22.4,39.1 C22.4,40 22,40.8 21.3,41.2 C20.8,41.3 20.5,41.4 20.1,41.4 L20.1,41.4 Z M2.3,2.6 C2.3,2.7 2.3,2.7 2.3,2.6 L2.3,27.6 C2.3,28.3 2.9,29.3 3.5,29.7 L19.8,39.1 C19.8,39.1 19.9,39.1 19.9,39.2 L19.9,39.1 L19.9,20.5 L13,8.8 L2.4,2.7 C2.4,2.7 2.4,2.6 2.3,2.6 L2.3,2.6 Z" fill="#CCA000"></path>
                    </g>
                    <polygon fill="#CCA000" points="13.2 12.4 13.2 20.6 20.5 24.7 20.5 24.7"></polygon>
                    <path d="M15.6,28.4 C15.4,28.4 15.2,28.4 15.1,28.3 L5.8,22.9 C5.3,22.6 5.1,21.9 5.4,21.4 C5.7,20.9 6.4,20.7 6.9,21 L16.2,26.4 C16.7,26.7 16.9,27.4 16.6,27.9 C16.3,28.2 16,28.4 15.6,28.4 L15.6,28.4 Z" fill="#CCA000"></path>
                    <path d="M15.6,32.3 C15.4,32.3 15.2,32.3 15.1,32.2 L5.8,26.8 C5.3,26.5 5.1,25.8 5.4,25.3 C5.7,24.8 6.4,24.6 6.9,24.9 L16.2,30.3 C16.7,30.6 16.9,31.3 16.6,31.8 C16.3,32.1 16,32.3 15.6,32.3 L15.6,32.3 Z" fill="#CCA000"></path>
                    <path d="M15.6,36.2 C15.4,36.2 15.2,36.2 15.1,36.1 L5.8,30.7 C5.3,30.4 5.1,29.7 5.4,29.2 C5.7,28.7 6.4,28.5 6.9,28.8 L16.2,34.2 C16.7,34.5 16.9,35.2 16.6,35.7 C16.3,36 16,36.2 15.6,36.2 L15.6,36.2 Z" fill="#CCA000"></path>
                    <g>
                        <path d="M27.1,40.5 C27.4,40.3 27.6,39.9 27.6,39.4 L27.6,20.5 L20.4,8.3 L9.5,2 C8.9,1.7 8.4,1.7 8,2 L1.5,5.7 C1.8,5.4 2.4,5.3 3,5.7 L13.9,12 L21.1,24.2 L21.1,43.1 C21.1,43.6 20.9,44 20.6,44.2 L27.1,40.5 L27.1,40.5 Z" fill="#E0AF00"></path>
                        <path d="M20.6,45.3 C20.2,45.3 19.8,45.1 19.6,44.7 C19.3,44.2 19.5,43.6 20,43.2 L20,43 L20,24.4 L13.1,12.7 L2.5,6.6 C2.4,6.6 2.4,6.5 2.3,6.5 L2.1,6.6 C1.6,6.9 1,6.8 0.7,6.3 C0.4,5.9 0.4,5.3 0.7,4.9 C0.9,4.6 1.2,4.5 1.5,4.4 L7.3,1.1 C8,0.5 9,0.4 10,1 L20.9,7.3 C21.1,7.4 21.2,7.5 21.3,7.7 L28.5,19.9 C28.6,20.1 28.7,20.3 28.7,20.5 L28.7,39.4 C28.7,40.3 28.3,41.1 27.6,41.5 L21.2,45.2 L21.2,45.2 C20.9,45.3 20.8,45.3 20.6,45.3 L20.6,45.3 Z M4.5,5.3 L14.4,11 C14.6,11.1 14.7,11.2 14.8,11.4 L22,23.6 C22.1,23.8 22.2,24 22.2,24.2 L22.2,42 L26.5,39.5 L26.5,39.3 L26.5,20.7 L19.6,9 L9,2.9 C8.9,2.9 8.9,2.8 8.8,2.8 C8.7,2.8 8.7,2.9 8.6,2.9 L4.5,5.3 L4.5,5.3 Z" fill="#CCA000"></path>
                    </g>
                    <g transform="translate(12.000000, 7.000000)">
                        <path d="M8.5,1.4 L2,5.1" fill="#FDC400"></path>
                        <path d="M2,6.2 C1.6,6.2 1.3,6 1,5.7 C0.7,5.2 0.9,4.5 1.4,4.2 L7.9,0.5 C8.4,0.2 9.1,0.4 9.4,0.9 C9.7,1.4 9.5,2.1 9,2.4 L2.5,6.1 C2.4,6.2 2.2,6.2 2,6.2 L2,6.2 Z" fill="#CCA000"></path>
                    </g>
                    <g transform="translate(19.000000, 19.000000)">
                        <path d="M1.9,5.4 L8.4,1.6" fill="#FDC400"></path>
                        <path d="M1.9,6.5 C1.5,6.5 1.2,6.3 0.9,6 C0.6,5.5 0.8,4.8 1.3,4.5 L7.8,0.8 C8.3,0.5 9,0.7 9.3,1.2 C9.6,1.7 9.4,2.4 8.9,2.7 L2.4,6.4 C2.3,6.4 2.1,6.5 1.9,6.5 L1.9,6.5 Z" fill="#CCA000"></path>
                    </g>
                </g>
                <g transform="translate(98.000000, 96.000000)">
                    <g>
                        <g transform="translate(0.000000, 3.000000)">
                            <path d="M23.5,42.2 L4,30.9 C2.6,30.1 1.4,27.8 1.4,25.9 L1.4,4.4 C1.4,2.5 2.6,1.6 4,2.4 L23.6,13.7 C25,14.5 26.2,16.8 26.2,18.7 L26.2,40.2 C26.2,42.1 25,43 23.5,42.2 L23.5,42.2 Z" fill="#FDC400"></path>
                            <path d="M24.6,43.6 C24.1,43.6 23.5,43.4 23,43.1 L3.4,31.8 C1.6,30.8 0.2,28.1 0.2,25.8 L0.2,4.3 C0.2,2.9 0.7,1.8 1.7,1.2 C2.5,0.7 3.5,0.8 4.5,1.3 L24.1,12.6 C25.9,13.6 27.3,16.3 27.3,18.6 L27.3,40.1 C27.3,41.5 26.8,42.6 25.8,43.2 C25.4,43.5 25,43.6 24.6,43.6 L24.6,43.6 Z M2.9,3.1 L2.8,3.1 C2.6,3.2 2.4,3.6 2.4,4.3 L2.4,25.8 C2.4,27.3 3.4,29.2 4.5,29.9 L24.1,41.2 L24.1,41.2 C24.4,41.4 24.6,41.4 24.7,41.3 C24.9,41.2 25.1,40.8 25.1,40.1 L25.1,18.6 C25.1,17.1 24.1,15.2 23,14.5 L3.4,3.2 C3.2,3.2 3.1,3.1 2.9,3.1 L2.9,3.1 Z" fill="#CCA000"></path>
                        </g>
                        <g>
                            <path d="M8.4,1.7 C8.9,1.3 9.6,1.2 10.3,1.7 L29.9,13 C31.3,13.8 32.5,16.1 32.5,18 L32.5,39.5 C32.5,40.4 32.2,41.1 31.8,41.5 L25.4,45.2 C25.9,44.8 26.1,44.1 26.1,43.2 L26.1,21.7 C26.1,19.8 24.9,17.5 23.5,16.7 L4,5.4 C3.2,5 2.5,5 2.1,5.4 L8.4,1.7 L8.4,1.7 Z" fill="#E0AF00"></path>
                            <path d="M25.4,46.3 C25,46.3 24.7,46.1 24.5,45.8 C24.2,45.3 24.3,44.7 24.7,44.3 C24.9,44.2 25,43.8 25,43.1 L25,21.6 C25,20.1 24,18.2 22.9,17.5 L3.3,6.2 C3.2,6.1 3,6 2.8,6 L2.5,6.2 C2,6.5 1.4,6.3 1.1,5.9 C0.8,5.4 0.8,4.8 1.3,4.4 C1.5,4.2 1.8,4 2.1,3.9 L7.8,0.6 C8.7,-0.1 9.8,-0.1 10.9,0.5 L30.5,11.8 C32.3,12.8 33.7,15.5 33.7,17.8 L33.7,39.3 C33.7,40.6 33.3,41.6 32.5,42.2 L32.4,42.3 L26,46 C25.8,46.3 25.6,46.3 25.4,46.3 L25.4,46.3 Z M5.2,4.8 L24.1,15.7 C25.9,16.7 27.3,19.4 27.3,21.7 L27.3,42.9 L31.2,40.6 C31.3,40.4 31.5,40.1 31.5,39.5 L31.5,18 C31.5,16.5 30.5,14.6 29.4,13.9 L9.8,2.6 C9.6,2.5 9.3,2.3 9.1,2.5 C9,2.6 9,2.6 8.9,2.6 L5.2,4.8 L5.2,4.8 Z" fill="#CCA000"></path>
                        </g>
                    </g>
                    <g transform="translate(1.000000, 14.000000)">
                        <ellipse fill="#FDC400" transform="translate(9.902800, 11.775000) rotate(-30.000728) translate(-9.902800, -11.775000) " cx="9.902921" cy="11.7752112" rx="5.5" ry="9.6"></ellipse>
                        <path d="M12.9,21.6 C10,21.6 6.5,19.1 4.1,15.1 C1.1,9.9 1.3,4.4 4.5,2.6 C7.7,0.7 12.6,3.3 15.6,8.5 C18.6,13.7 18.4,19.2 15.2,21 L15.2,21 C14.5,21.4 13.7,21.6 12.9,21.6 L12.9,21.6 Z M6.8,4.2 C6.3,4.2 5.9,4.3 5.6,4.5 C3.8,5.6 3.5,9.7 6,14 C8.5,18.4 12.2,20.2 14.1,19.1 L14.1,19.1 C15.9,18 16.2,13.9 13.7,9.6 C11.6,6 8.8,4.2 6.8,4.2 L6.8,4.2 Z" fill="#CCA000"></path>
                    </g>
                    <g transform="translate(4.000000, 14.000000)">
                        <path d="M5.3,1.6 C7.9,0.1 12.2,2.5 14.9,7.1 C17.5,11.7 17.5,16.6 14.9,18.1 L11.7,20 C14.3,18.5 14.3,13.5 11.7,9 C9.1,4.5 4.8,2 2.1,3.5 L5.3,1.6 L5.3,1.6 Z" fill="#E0AF00"></path>
                        <path d="M11.6,21.2 C11.2,21.2 10.9,21 10.6,20.7 C10.3,20.2 10.5,19.5 11,19.2 L11,19.2 C12.8,18.1 13.1,14 10.6,9.7 C8.1,5.3 4.4,3.5 2.5,4.6 C2,4.9 1.3,4.7 1,4.2 C0.7,3.7 0.9,3 1.4,2.7 L1.4,2.7 L1.4,2.7 L4.6,0.8 C6.2,-0.1 8.3,-3.85524945e-14 10.5,1.3 C12.5,2.4 14.3,4.4 15.7,6.7 C17.1,9.1 17.8,11.6 17.8,13.9 C17.8,16.4 16.9,18.3 15.3,19.2 L12.1,21.1 C12,21.1 11.8,21.2 11.6,21.2 L11.6,21.2 Z M6.2,2.4 C8.5,3.3 10.9,5.4 12.6,8.4 C14.3,11.4 15,14.5 14.6,17 C15.6,16.2 15.7,14.7 15.7,13.8 C15.7,11.9 15,9.7 13.9,7.7 C12.7,5.7 11.2,4 9.5,3.1 C8.8,2.6 7.4,2 6.2,2.4 L6.2,2.4 Z" fill="#CCA000"></path>
                    </g>
                </g>
                <g transform="translate(383.000000, 0.000000)">
                    <g transform="translate(0.000000, 21.000000)">
                        <path d="M28.3,25.1 L1.7,9.7 L1.7,7.8 C1.7,1 7.2,-0.6 15,4 C22.8,8.6 28.3,16.4 28.3,23.2 L28.3,25.1 L28.3,25.1 Z" fill="#FDC400"></path>
                        <path d="M28.3,26.2 C28.1,26.2 27.9,26.2 27.8,26.1 L1.2,10.7 C0.9,10.5 0.7,10.1 0.7,9.7 L0.7,7.8 C0.7,3.8 2.4,2 3.9,1.2 C6.7,-0.4 10.9,0.3 15.7,3.1 C23.9,7.8 29.6,16.1 29.6,23.3 L29.6,25.2 C29.6,25.6 29.4,26 29.1,26.2 C28.6,26.1 28.5,26.2 28.3,26.2 L28.3,26.2 Z M2.8,9.1 L27.2,23.2 L27.2,23.2 C27.2,16.8 22,9.3 14.4,4.9 C10.3,2.5 6.8,1.9 4.8,3 C3.1,4 2.7,6.1 2.7,7.7 L2.7,9.1 L2.8,9.1 Z" fill="#CCA000"></path>
                    </g>
                    <g transform="translate(3.000000, 17.000000)">
                        <path d="M17.7,4.7 C14,2.6 10.9,1.8 8.6,2.3 C8.6,2.3 4.1,4.7 1.6,6 L1.6,6 C4,4.8 7.6,5.5 12,8 C19.8,12.5 25.3,20.4 25.3,27.2 L25.3,29.1 L31,25.8 L31,23.9 C31,17.1 25.6,9.2 17.7,4.7 L17.7,4.7 Z" fill="#E0AF00"></path>
                        <path d="M25.3,30.2 C25.1,30.2 24.9,30.2 24.8,30.1 C24.5,29.9 24.3,29.5 24.3,29.1 L24.3,27.2 C24.3,20.8 19.1,13.3 11.5,8.9 C7.6,6.6 4.2,5.9 2.1,6.9 C1.6,7.2 0.9,6.9 0.6,6.4 C0.3,5.9 0.5,5.2 1.1,4.9 C3.6,3.6 8.1,1.2 8.1,1.2 C8.2,1.2 8.3,1.1 8.4,1.1 C11.1,0.6 14.5,1.4 18.3,3.7 L18.3,3.7 C26.5,8.4 32.2,16.7 32.2,23.9 L32.2,25.8 C32.2,26.2 32,26.6 31.7,26.8 L26,30.1 C25.7,30.2 25.5,30.2 25.3,30.2 L25.3,30.2 Z M6.5,4.6 C8.3,5 10.4,5.8 12.5,7 C20.7,11.7 26.4,20 26.4,27.2 L26.4,27.2 L29.9,25.2 L29.9,23.9 C29.9,17.5 24.7,10 17.1,5.6 L17.1,5.6 C13.9,3.7 11,2.9 8.9,3.3 C8.6,3.5 7.7,4 6.5,4.6 L6.5,4.6 Z" fill="#CCA000"></path>
                    </g>
                    <g transform="translate(7.000000, 3.000000)">
                        <path d="M3.3,13.2 C0.7,8.7 0.7,3.9 3.3,2.4 C5.9,0.9 10.1,3.3 12.7,7.8 C15.3,12.3 15.3,17.1 12.7,18.6 C10.1,20.1 5.9,17.7 3.3,13.2 L3.3,13.2 Z" fill="#FDC400"></path>
                        <path d="M10.9,20.1 C8,20.1 4.6,17.7 2.3,13.7 L2.3,13.7 C1,11.4 0.2,8.8 0.2,6.6 C0.2,4.1 1.1,2.3 2.7,1.3 C4.3,0.4 6.4,0.5 8.5,1.8 C10.4,2.9 12.2,4.8 13.6,7.2 C16.5,12.3 16.4,17.7 13.2,19.5 C12.5,20 11.7,20.1 10.9,20.1 L10.9,20.1 Z M5,3 C4.6,3 4.2,3.1 3.8,3.3 C2.9,3.8 2.4,5 2.4,6.6 C2.4,8.5 3,10.6 4.2,12.6 L4.2,12.6 C6.4,16.4 10.1,18.8 12.1,17.6 C14.1,16.4 13.9,12.1 11.7,8.3 C10.5,6.3 9,4.7 7.4,3.8 C6.5,3.3 5.7,3 5,3 L5,3 Z" fill="#CCA000"></path>
                    </g>
                    <g transform="translate(9.000000, 0.000000)">
                        <path d="M7,2 C9.6,0.5 13.8,2.9 16.4,7.4 C19,11.9 19,16.7 16.4,18.2 L10.7,21.5 C13.3,20 13.3,15.1 10.7,10.7 C8.1,6.2 3.9,3.8 1.3,5.3 L7,2 L7,2 Z" fill="#E0AF00"></path>
                        <path d="M10.7,22.7 C10.3,22.7 10,22.5 9.7,22.2 C9.4,21.7 9.6,21 10.1,20.7 L10.1,20.7 C12.1,19.5 11.9,15.2 9.7,11.4 C8.5,9.4 7,7.8 5.4,6.9 C4,6.1 2.7,5.9 1.8,6.4 C1.3,6.7 0.6,6.5 0.3,6 C-4.12170298e-14,5.5 0.2,4.8 0.7,4.5 L0.7,4.5 L0.7,4.5 L6.4,1.2 L6.4,1.2 C9.6,-0.6 14.3,1.9 17.3,7 C18.6,9.3 19.4,11.9 19.4,14.1 C19.4,16.6 18.5,18.4 16.9,19.4 L11.2,22.7 L11.2,22.7 L10.7,22.7 L10.7,22.7 Z M5.3,4.3 C5.7,4.5 6.1,4.7 6.5,4.9 C8.4,6 10.2,7.9 11.6,10.3 C13.3,13.3 14,16.3 13.6,18.7 L15.8,17.4 C16.7,16.9 17.2,15.7 17.2,14.1 C17.2,12.2 16.6,10.1 15.4,8.1 C13.2,4.3 9.5,1.9 7.5,3.1 L5.3,4.3 L5.3,4.3 Z" fill="#CCA000"></path>
                    </g>
                </g>
                <g transform="translate(95.000000, 289.000000)">
                    <g transform="translate(0.000000, 4.000000)">
                        <path d="M24.7,31 L9.1,22 C5,19.6 1.7,13.3 1.7,7.9 L1.7,7.9 C1.7,2.5 5,-2.57571742e-14 9.1,2.3 L24.7,11.3 C28.8,13.7 32.1,20 32.1,25.4 L32.1,25.4 C32.1,30.8 28.7,33.3 24.7,31 L24.7,31 Z" fill="#FDC400"></path>
                        <path d="M27.6,33 C26.5,33 25.3,32.7 24.1,32 L8.5,23 C4.1,20.5 0.5,13.7 0.5,7.9 C0.5,4.6 1.6,2.1 3.6,1 C5.3,2.07611706e-14 7.4,0.2 9.5,1.4 L25.1,10.4 C29.5,12.9 33.1,19.7 33.1,25.5 C33.1,28.8 32,31.3 30,32.4 C29.3,32.8 28.5,33 27.6,33 L27.6,33 Z M6.1,2.4 C5.6,2.4 5.2,2.5 4.7,2.8 C3.4,3.5 2.7,5.4 2.7,7.8 C2.7,12.8 5.8,18.9 9.6,21 L25.2,30 L25.2,30 C26.2,30.6 27.7,31.1 28.9,30.4 C30.2,29.7 30.9,27.8 30.9,25.4 C30.9,20.4 27.8,14.3 24,12.2 L8.4,3.2 C7.8,2.8 7,2.4 6.1,2.4 L6.1,2.4 Z" fill="#CCA000"></path>
                    </g>
                    <g transform="translate(3.000000, 0.000000)">
                        <path d="M25.1,27.1 C25.1,24.3 23.2,21 20.9,19.7 C18.6,18.4 16.7,19.5 16.7,22.3 C16.7,25.1 18.6,28.4 20.9,29.7 C23.2,31 25.1,29.8 25.1,27.1 L25.1,27.1 Z" fill="#CCA000"></path>
                        <g>
                            <path d="M34.3,30.4 C35.1,29.3 35.6,27.7 35.6,25.6 L35.6,25.6 C35.6,20.2 32.3,13.8 28.2,11.5 L12.6,2.5 C11.2,1.7 9.9,1.5 8.8,1.7 L2.1,5.5 C3.4,5 4.8,5.4 6.2,6.2 L21.8,15.2 C25.9,17.6 29.2,23.9 29.2,29.3 L29.2,29.3 C29.2,31.3 28.4,33.9 27,35.1 L34.3,30.4 L34.3,30.4 Z" fill="#E0AF00"></path>
                            <path d="M26.8,36 C26.5,36 26.3,35.9 26.1,35.6 C25.8,35.2 25.9,34.7 26.2,34.4 C27.5,33.3 28.1,31 28.1,29.3 C28.1,24.2 24.9,18.1 21.1,15.9 L5.5,6.9 C4.1,6.1 3.1,5.9 2.1,6.2 C1.7,6.4 1.2,6.2 1,5.7 C0.8,5.3 1,4.8 1.4,4.6 L8.1,0.8 C8.2,0.8 8.2,0.7 8.3,0.7 C9.7,0.4 11.2,0.7 12.8,1.6 L28.4,10.6 C32.7,13.1 36.2,19.8 36.2,25.5 C36.2,27.7 35.7,29.5 34.8,30.8 C34.7,30.9 34.7,31 34.6,31 L27.2,35.7 C27.2,36 27,36 26.8,36 L26.8,36 Z M5,4.8 C5.5,5 6,5.2 6.5,5.5 L22.1,14.5 C26.4,17 29.9,23.7 29.9,29.4 C29.9,30.3 29.7,31.4 29.4,32.5 L33.6,29.8 C34.3,28.8 34.6,27.4 34.6,25.7 C34.6,20.6 31.4,14.5 27.6,12.3 L12,3.3 C10.9,2.7 9.8,2.4 8.9,2.6 L5,4.8 L5,4.8 Z" fill="#CCA000"></path>
                        </g>
                    </g>
                </g>
                <g transform="translate(294.000000, 285.000000)">
                    <g transform="translate(0.000000, 2.000000)" fill="#CCA000">
                        <polygon points="1.6 5.7 9.8 1.1 11.7 3.3 5.9 7.6"></polygon>
                        <path d="M5.9,8.7 C5.8,8.7 5.6,8.7 5.5,8.6 L1.2,6.7 C0.8,6.5 0.6,6.2 0.5,5.8 C0.5,5.4 0.7,5 1.1,4.8 L9.3,0.2 C9.7,-0.1 10.3,-7.77156117e-16 10.7,0.4 L12.7,2.6 C12.9,2.8 13,3.1 13,3.4 C13,3.7 12.8,4 12.6,4.2 L6.8,8.5 C6.4,8.6 6.2,8.7 5.9,8.7 L5.9,8.7 Z M4,5.6 L5.7,6.4 L10,3.2 L9.4,2.6 L4,5.6 L4,5.6 Z"></path>
                    </g>
                    <g transform="translate(0.000000, 4.000000)">
                        <path d="M17.5,12.3 L14.6,10.6 L14.6,6.5 C14.6,6.1 14.3,5.7 14,5.5 L6.5,1.2 C6.2,1 5.9,1.2 5.9,1.5 L5.9,5.6 L2.7,3.8 C1.9,3.3 1.3,3.7 1.3,4.6 L1.3,28.2 C1.3,29.9 2.5,32 4,32.9 L16.2,40 C17.7,40.9 18.9,40.2 18.9,38.4 L18.9,14.8 C19,13.9 18.3,12.8 17.5,12.3 L17.5,12.3 Z" fill="#FDC400"></path>
                        <path d="M17.5,41.4 C16.9,41.4 16.4,41.2 15.8,40.9 L3.6,33.8 C1.8,32.8 0.4,30.3 0.4,28.2 L0.4,4.6 C0.4,3.8 0.7,3.1 1.3,2.8 C1.9,2.5 2.6,2.5 3.3,2.9 L5,3.9 L5,1.6 C5,1.1 5.3,0.6 5.7,0.3 C6.1,0.1 6.7,0.1 7.1,0.3 L14.6,4.6 C15.2,5 15.7,5.8 15.7,6.5 L15.7,10 L18.1,11.4 C19.2,12 20,13.5 20,14.8 L20,38.4 C20,39.6 19.5,40.6 18.7,41 C18.3,41.3 17.9,41.4 17.5,41.4 L17.5,41.4 Z M2.3,4.7 L2.3,28.2 C2.3,29.6 3.3,31.3 4.5,32 L16.7,39.1 C17.2,39.4 17.5,39.4 17.6,39.3 C17.7,39.2 17.9,38.9 17.9,38.4 L17.9,14.8 C17.9,14.3 17.5,13.5 17,13.2 L17,13.2 L14.1,11.5 C13.8,11.3 13.6,11 13.6,10.6 L13.6,6.5 L13.5,6.4 L6.9,2.6 L6.9,5.6 C6.9,6 6.7,6.3 6.4,6.5 C6.1,6.7 5.7,6.7 5.4,6.5 L2.3,4.7 L2.3,4.7 Z" fill="#CCA000"></path>
                    </g>
                    <path d="M15,21.7 L13.1,20.6 L12.9,20.5 L5.2,16.1 C4.7,15.8 4.3,16 4.3,16.6 L4.3,31.3 C4.3,32.4 5.1,33.8 6.1,34.4 L14.2,39.1 C15.2,39.7 16,39.2 16,38.1 L16,23.4 C16,22.8 15.5,22 15,21.7 L15,21.7 Z" fill="#CCA000"></path>
                    <g transform="translate(4.000000, 0.000000)">
                        <path d="M8.6,1.4 C8.7,1.4 8.8,1.4 9,1.5 L16.5,5.8 C16.8,6 17.1,6.4 17.1,6.8 L17.1,10.9 L20,12.6 C20.8,13.1 21.4,14.2 21.4,15.1 L21.4,38.7 C21.4,39.6 21.1,40.2 20.5,40.5 L14,44.2 C14.5,43.9 14.9,43.3 14.9,42.4 L14.9,18.8 C14.9,17.9 14.3,16.8 13.5,16.3 L10.6,14.6 L10.6,10.5 C10.6,10.1 10.3,9.7 10,9.5 L2.5,5.2 C2.4,5.1 2.2,5.1 2.1,5.1 L8.6,1.4 L8.6,1.4 Z" fill="#E0AF00"></path>
                        <path d="M14.1,45.3 C13.7,45.3 13.3,45.1 13.1,44.7 C12.8,44.2 13,43.5 13.5,43.2 L13.6,43.2 C13.7,43.1 13.8,42.8 13.8,42.4 L13.8,18.8 C13.8,18.3 13.4,17.5 12.9,17.3 L10,15.6 C9.7,15.4 9.5,15 9.5,14.6 L9.5,10.5 L9.5,10.5 C9.5,10.5 9.5,10.4 9.4,10.4 L2.1,6.2 C1.7,6.2 1.3,6 1.1,5.6 C0.8,5.1 1,4.5 1.5,4.2 L8,0.5 L8.1,0.4 C8.5,0.2 9,0.3 9.4,0.5 L16.9,4.8 C17.6,5.2 18,6 18,6.8 L18,10.2 L20.4,11.6 C21.5,12.3 22.4,13.7 22.4,15 L22.4,38.6 C22.4,39.9 21.9,40.9 21,41.3 L14.7,44.9 C14.6,44.9 14.6,45 14.5,45 C14.5,45.3 14.3,45.3 14.1,45.3 L14.1,45.3 Z M11.7,14 L14.1,15.4 C15.2,16.1 16.1,17.5 16.1,18.8 L16.1,41.8 L20.1,39.5 L20.1,39.5 C20.2,39.4 20.4,39.2 20.4,38.7 L20.4,15.1 C20.4,14.6 20,13.8 19.5,13.6 L16.6,11.9 C16.3,11.7 16.1,11.3 16.1,10.9 L16.1,6.8 L16.1,6.8 C16.1,6.8 16.1,6.7 16,6.7 L8.8,2.6 L4.5,5.1 L10.6,8.6 C11.3,9 11.7,9.8 11.7,10.6 L11.7,14 L11.7,14 Z" fill="#CCA000"></path>
                    </g>
                    <g transform="translate(13.000000, 5.000000)">
                        <path d="M1.3,4.8 L7.7,1.1" fill="#FDC400"></path>
                        <path d="M1.3,5.9 C0.9,5.9 0.6,5.7 0.4,5.4 C0.1,4.9 0.3,4.3 0.8,4 L7.3,0.3 C7.8,1.56263891e-14 8.4,0.2 8.7,0.7 C9,1.2 8.8,1.8 8.3,2.1 L1.8,5.8 C1.6,5.8 1.4,5.9 1.3,5.9 L1.3,5.9 Z" fill="#CCA000"></path>
                    </g>
                    <g transform="translate(13.000000, 9.000000)">
                        <path d="M1.6,5.7 L8.1,1.9" fill="#FDC400"></path>
                        <path d="M1.6,6.7 C1.2,6.7 0.9,6.5 0.7,6.2 C0.4,5.7 0.6,5.1 1.1,4.8 L7.6,1.1 C8.1,0.8 8.7,1 9,1.5 C9.3,2 9.1,2.6 8.6,2.9 L2.1,6.6 C2,6.6 1.8,6.7 1.6,6.7 L1.6,6.7 Z" fill="#CCA000"></path>
                    </g>
                </g>
                <g transform="translate(472.000000, 287.000000)">
                    <g>
                        <g>
                            <ellipse fill="#FDC400" transform="translate(19.971500, 22.687100) rotate(-30.000728) translate(-19.971500, -22.687100) " cx="19.971742" cy="22.6875202" rx="11" ry="19.1"></ellipse>
                            <path d="M26,41.2 C24,41.2 21.7,40.5 19.4,39.2 C15.6,37 12.1,33.3 9.5,28.7 C3.8,18.9 4,8.6 9.9,5.2 C12.8,3.5 16.6,3.9 20.5,6.1 C24.3,8.3 27.8,12 30.4,16.6 C33,21.2 34.5,26.1 34.5,30.4 C34.5,35 32.9,38.4 30,40.1 L30,40.1 C28.8,40.9 27.5,41.2 26,41.2 L26,41.2 Z M14,6.4 C12.9,6.4 11.9,6.7 11,7.2 C6.3,9.9 6.5,19.3 11.4,27.7 C13.9,31.9 17.1,35.4 20.5,37.4 C23.7,39.3 26.7,39.6 28.9,38.3 L28.9,38.3 C31.1,37 32.3,34.3 32.3,30.5 C32.3,26.5 31,22 28.5,17.8 C26,13.6 22.8,10.1 19.4,8.1 C17.5,7 15.6,6.4 14,6.4 L14,6.4 Z" fill="#CCA000"></path>
                        </g>
                        <g transform="translate(9.000000, 0.000000)">
                            <path d="M7.9,2.5 C13.2,-0.5 21.7,4.4 27,13.5 C32.3,22.6 32.3,32.5 27,35.5 L20.5,39.2 C25.8,36.2 25.8,26.3 20.5,17.2 C15.2,8.1 6.7,3.2 1.4,6.2 L7.9,2.5 L7.9,2.5 Z" fill="#E0AF00"></path>
                            <path d="M20.5,40.3 C20.1,40.3 19.8,40.1 19.5,39.8 C19.2,39.3 19.4,38.6 19.9,38.3 L19.9,38.3 C22.1,37 23.3,34.3 23.3,30.5 C23.3,26.5 22,22 19.5,17.8 C17,13.6 13.8,10.1 10.4,8.1 C7.2,6.2 4.2,5.9 2,7.2 L2,7.2 C1.5,7.5 0.8,7.3 0.5,6.8 C0.2,6.3 0.4,5.6 0.9,5.3 L7.4,1.6 C13.3,-1.8 22.3,3.2 28,13 C30.6,17.6 32.1,22.5 32.1,26.8 C32.1,31.4 30.5,34.8 27.6,36.5 L21.1,40.2 L21.1,40.2 C20.9,40.3 20.7,40.3 20.5,40.3 L20.5,40.3 Z M6.8,4.4 C8.3,4.7 9.9,5.3 11.5,6.2 C15.3,8.4 18.8,12.1 21.4,16.7 C24,21.3 25.5,26.2 25.5,30.5 C25.5,32.4 25.2,34 24.7,35.5 L26.4,34.5 C28.6,33.2 29.8,30.5 29.8,26.7 C29.8,22.7 28.5,18.2 26,14 C21.1,5.6 13.1,0.7 8.4,3.4 L8.4,3.4 L6.8,4.4 L6.8,4.4 Z" fill="#CCA000"></path>
                        </g>
                    </g>
                    <path d="M19.9,13.1 C17.5,11.7 15.2,11.5 13.6,12.5 L11.9,9.5 L11.9,15.7 L17.3,18.8 L14.9,14.7 C16.2,13.9 18,14.1 20,15.2 C23.9,17.5 27.2,23 27.2,27.6 C27.2,32.2 24,34 20,31.7 C16,29.4 12.8,23.9 12.8,19.3 L11,18.3 C11,24 15,30.9 19.9,33.8 C24.8,36.6 28.8,34.3 28.8,28.6 C28.9,22.9 24.9,16 19.9,13.1 L19.9,13.1 Z" fill="#CCA000"></path>
                </g>
            </g>
        </g>
    </g>
</svg>